<?xml version="1.0" encoding="UTF-8"?>
<svg version="1.1" xmlns="http://www.w3.org/2000/svg" width="1600" height="420">
<path d="M0 0 C0.85078125 0.42925781 1.7015625 0.85851563 2.578125 1.30078125 C18.8093827 10.17561409 30.28157565 25.48808506 38 42 C38.34370979 43.33069623 38.67542214 44.66450829 39 46 C39.24661377 46.76787842 39.49322754 47.53575684 39.74731445 48.3269043 C43.15460807 60.24259626 42.32484224 72.53721324 42.1875 84.8125 C42.17242703 87.1621008 42.15874325 89.51171095 42.14648438 91.86132812 C42.11368375 97.57442515 42.06369148 103.28716818 42 109 C43.96453125 108.97643433 43.96453125 108.97643433 45.96875 108.95239258 C50.9039069 108.89742092 55.83903771 108.86340938 60.77441406 108.83520508 C62.8962054 108.82026967 65.0179667 108.79991394 67.13964844 108.77368164 C92.72352289 108.46566049 116.6169851 112.04999349 136.1796875 130 C137.91986468 131.92461992 139.45847402 133.91330019 141 136 C141.71414063 136.87011719 142.42828125 137.74023438 143.1640625 138.63671875 C157.53211691 156.63282703 161.75685084 176.27524026 160 199 C158.58811834 210.69346782 153.65306655 220.81983703 148 231 C147.19755859 232.46373047 147.19755859 232.46373047 146.37890625 233.95703125 C145.92386719 234.63121094 145.46882813 235.30539062 145 236 C144.34 236 143.68 236 143 236 C142.71898437 236.59425781 142.43796875 237.18851563 142.1484375 237.80078125 C134.59278791 252.26959321 117.06999055 260.15482464 102.375 265.140625 C89.74551178 268.35646691 77.20497276 268.42562883 64.25 268.625 C62.18488072 268.66325496 60.11977611 268.70231083 58.0546875 268.7421875 C53.03657989 268.83736258 48.01839793 268.92168702 43 269 C42.99635437 269.55106918 42.99270874 270.10213837 42.98895264 270.66990662 C42.94657703 276.49591683 42.8768646 282.32117889 42.79248047 288.14672852 C42.76455405 290.3100632 42.74320141 292.47349455 42.72900391 294.63696289 C42.61710837 310.73873025 42.25188414 326.69673416 34 341 C33.57847656 342.15628906 33.57847656 342.15628906 33.1484375 343.3359375 C29.71443533 351.30188812 22.89681187 358.67171409 17 365 C16.34 365 15.68 365 15 365 C15 365.66 15 366.32 15 367 C-1.77188883 380.93014023 -23.32388242 387.6146995 -45 386 C-62.55908246 384.24836404 -77.96180385 376.72630334 -91 365 C-92.06347656 364.07767578 -92.06347656 364.07767578 -93.1484375 363.13671875 C-108.35965175 349.09791034 -116.01537983 328.05393488 -117.12495422 307.70884705 C-117.20888348 305.22263217 -117.26782079 302.73715377 -117.31640625 300.25 C-117.33718735 299.35128174 -117.35796844 298.45256348 -117.37937927 297.52661133 C-117.44423053 294.68447764 -117.50345696 291.84225967 -117.5625 289 C-117.60574665 287.06118956 -117.64936279 285.12238732 -117.69335938 283.18359375 C-117.79984487 278.45581329 -117.90128947 273.72794893 -118 269 C-119.27415771 268.98541748 -120.54831543 268.97083496 -121.86108398 268.95581055 C-126.67172785 268.89703138 -131.48194168 268.81981783 -136.29223633 268.73754883 C-138.35857061 268.7046684 -140.42498678 268.67652705 -142.49145508 268.65356445 C-176.23389201 268.268732 -176.23389201 268.268732 -188 261 C-189.87282297 259.99592873 -191.74798936 258.99622089 -193.625 258 C-213.23322869 247.18445708 -225.66662637 230.85214696 -232.30859375 209.5859375 C-234.04666879 203.08534047 -234.18341641 197.01366917 -234.1875 190.3125 C-234.19974609 189.27416016 -234.21199219 188.23582031 -234.22460938 187.16601562 C-234.26537251 165.49361332 -225.56359402 146.87966138 -210.6875 131.375 C-189.78855836 111.11042758 -164.8061256 108.80807119 -137.25 108.9375 C-135.37760537 108.94252635 -133.50520942 108.94708724 -131.6328125 108.95117188 C-127.08850877 108.96208457 -122.54426919 108.97928629 -118 109 C-117.98541748 107.79690186 -117.97083496 106.59380371 -117.95581055 105.35424805 C-117.89684117 100.79326946 -117.81963767 96.23273522 -117.73754883 91.67211914 C-117.70475462 89.71646456 -117.67658938 87.76072563 -117.65356445 85.80493164 C-117.34259024 60.060237 -114.44283261 36.30269028 -96.48046875 16.30859375 C-95 15 -95 15 -93 15 C-93 14.34 -93 13.68 -93 13 C-83.74398138 3.95923762 -72.24498015 -2.08160635 -60 -6 C-59.00871094 -6.3196875 -58.01742187 -6.639375 -56.99609375 -6.96875 C-37.65091916 -12.30534989 -17.5586813 -9.21148436 0 0 Z M-54 56 C-59.48907795 63.97608371 -59.71366084 71.64891453 -59.59375 81.0625 C-59.59203426 82.50398661 -59.59210927 83.94547634 -59.59387207 85.38696289 C-59.59222822 88.39272347 -59.57370596 91.39772977 -59.54199219 94.40332031 C-59.50231709 98.229424 -59.49795293 102.05454317 -59.50545502 105.8808136 C-59.50854481 108.85283201 -59.49633347 111.82463482 -59.47932434 114.79660034 C-59.47236207 116.2061935 -59.46916145 117.61581105 -59.47001648 119.02542114 C-59.45795145 132.10959924 -57.49419456 142.69001747 -49 153 C-38.58534406 162.28129632 -29.03380413 165.02320489 -15.31640625 165.2109375 C-13.87954572 165.2389971 -12.4426969 165.2676615 -11.00585938 165.296875 C-8.78344959 165.33804435 -6.5612608 165.37501469 -4.33862305 165.40136719 C6.00328069 165.53402901 15.20999533 165.80875117 23.875 172.125 C26.36366679 173.91791049 28.05919432 175.01973144 31 176 C31.70674629 177.31252882 32.36184656 178.65278717 33 180 C33.804375 181.010625 34.60875 182.02125 35.4375 183.0625 C40.45173586 189.99959917 41.29337301 198.55050818 41.7890625 206.8828125 C41.7726193 208.98379281 41.7726193 208.98379281 43 210 C46.08171174 210.13866077 49.13929689 210.21326071 52.22265625 210.23828125 C53.15669785 210.246353 54.09073944 210.25442474 55.05308533 210.26274109 C57.03789401 210.2766054 59.02272677 210.28731699 61.00756836 210.29516602 C64.02569915 210.31229119 67.04270959 210.35614516 70.06054688 210.40039062 C71.98957528 210.41052499 73.91861301 210.41903876 75.84765625 210.42578125 C76.74380142 210.44328934 77.63994659 210.46079742 78.56324768 210.47883606 C85.46431174 210.45527934 90.63191641 208.77916524 95.98828125 204.359375 C100.47935137 198.90120128 103.43543108 193.74489715 102.9375 186.5 C101.91718196 180.27068985 99.82654681 175.05622063 94.6875 171.1875 C88.86267876 167.54545388 84.55793945 165.92494991 77.6875 165.5625 C66.46338903 164.91743615 57.43689479 160.11330874 49.671875 152.0390625 C40.10813179 140.37487102 40.59756415 125.29436359 40 111 C39.38592285 110.98541748 38.7718457 110.97083496 38.13916016 110.95581055 C35.30054015 110.88038055 32.46297742 110.78404224 29.625 110.6875 C28.65949219 110.66494141 27.69398438 110.64238281 26.69921875 110.61914062 C15.3733908 110.20107315 5.86052901 107.27296103 -3 100 C-5.72385865 96.86433759 -7.91438818 93.58557906 -10 90 C-10.598125 88.989375 -11.19625 87.97875 -11.8125 86.9375 C-13.836747 81.93015216 -14.78286683 76.91511455 -15.390625 71.5546875 C-16.22890193 64.24304981 -16.83976078 59.39479555 -22 54 C-31.69510473 46.32470876 -45.21800028 46.98689503 -54 56 Z M-174.4375 176.625 C-177.30107373 182.81031925 -178.06514042 189.91474449 -175.8125 196.4375 C-172.05972479 203.81364438 -167.84887806 207.35397671 -160 210 C-157.4039995 210.35722276 -154.85583729 210.651224 -152.25 210.875 C-141.30504467 211.84840407 -132.74969746 216.11458104 -125 224 C-124.34 224 -123.68 224 -123 224 C-122.71253906 224.71929687 -122.42507812 225.43859375 -122.12890625 226.1796875 C-121.40936725 227.97729013 -120.68818709 229.77423733 -119.96484375 231.5703125 C-119.62582031 232.41335937 -119.28679687 233.25640625 -118.9375 234.125 C-118.59589844 234.97320312 -118.25429687 235.82140625 -117.90234375 236.6953125 C-116.45566598 240.39029034 -115.84586678 243.33829995 -115.71875 247.2890625 C-115.66267578 248.82433594 -115.66267578 248.82433594 -115.60546875 250.390625 C-115.53490176 252.55467922 -115.46459109 254.71874181 -115.39453125 256.8828125 C-115.33845703 258.41421875 -115.33845703 258.41421875 -115.28125 259.9765625 C-115.25095703 260.91580566 -115.22066406 261.85504883 -115.18945312 262.82275391 C-115.23712805 264.97725449 -115.23712805 264.97725449 -114 266 C-112.44502832 266.09704468 -110.88609824 266.13202375 -109.328125 266.140625 C-93.83538655 266.38807578 -81.79365332 267.15147675 -70.16015625 278.5390625 C-63.05365607 286.63507536 -60.22680922 294.30453924 -59.6875 304.875 C-59.14399209 312.2873234 -56.69320056 318.87964399 -51.125 324 C-44.9982162 327.92114163 -38.16829972 329.21424394 -31 328 C-24.8360963 325.43539157 -19.94544255 322.13633865 -17 316 C-14.60532575 308.63269195 -14.69384361 301.48774107 -14.69921875 293.7890625 C-14.69532283 292.41197584 -14.69098634 291.03489036 -14.68623352 289.6578064 C-14.67880534 286.78159681 -14.67903753 283.90551004 -14.68432617 281.02929688 C-14.6901139 277.36911977 -14.67319055 273.70944985 -14.6499815 270.04935646 C-14.63514815 267.20778535 -14.63438543 264.36633367 -14.63749123 261.52473068 C-14.63673796 259.52750157 -14.62294473 257.53029081 -14.60881042 255.53311157 C-14.67041032 243.32219001 -17.17219037 233.59121729 -25 224 C-34.8584687 214.59823353 -46.37001472 211.5007065 -59.76757812 211.79492188 C-60.97865234 211.84197266 -62.18972656 211.88902344 -63.4375 211.9375 C-79.36583516 212.50728028 -92.73798573 211.03524596 -105.05859375 200.1875 C-113.23699608 191.74527824 -115.49751178 181.23955874 -116.640625 169.95703125 C-116.67738256 167.11707302 -116.67738256 167.11707302 -118 166 C-120.54945698 165.88638103 -123.07071489 165.83581075 -125.62109375 165.83203125 C-126.78198265 165.82703865 -126.78198265 165.82703865 -127.96632385 165.82194519 C-129.61320399 165.81686794 -131.26009447 165.81453711 -132.90698242 165.81469727 C-135.3958512 165.81253616 -137.88425815 165.79446085 -140.37304688 165.77539062 C-154.23629759 165.72388488 -164.53558779 165.96140223 -174.4375 176.625 Z " fill="#02D0FE" transform="translate(373,22)"/>
<path d="M0 0 C0 18.48 0 36.96 0 56 C-4.95 56.165 -9.9 56.33 -15 56.5 C-17.31837891 56.57831055 -17.31837891 56.57831055 -19.68359375 56.65820312 C-20.92238281 56.69880859 -22.16117187 56.73941406 -23.4375 56.78125 C-24.69433594 56.82314453 -25.95117188 56.86503906 -27.24609375 56.90820312 C-29.9369628 56.97400481 -32.61415617 57.00696334 -35.3046875 56.99951172 C-43.20407545 57.00055551 -49.02932078 58.379826 -55.30859375 63.26953125 C-59.95495184 68.02319553 -60.68342036 72.56362858 -61.0625 78.9921875 C-60.94452208 84.66987512 -59.31269851 88.34975044 -55.8125 92.75 C-49.717701 97.6258392 -45.02771287 99.13123075 -37.375 99.8125 C-26.58919937 100.83076639 -15.08917281 105.46122043 -8 114 C-6.1218938 116.90835344 -4.50741654 119.88550301 -3 123 C-2.67 123.66 -2.34 124.32 -2 125 C-0.77181253 132.23265957 -0.9443186 139.60841232 -0.97265625 146.91796875 C-0.97463013 147.88939819 -0.976604 148.86082764 -0.9786377 149.86169434 C-0.98375793 152.24114203 -0.99093119 154.62056463 -1 157 C-8.18584121 157.05107759 -15.37163488 157.08589083 -22.55761719 157.10986328 C-24.99773915 157.11986643 -27.4378493 157.13347322 -29.87792969 157.15087891 C-33.40302463 157.17537875 -36.92795988 157.18654033 -40.453125 157.1953125 C-42.06637665 157.21079636 -42.06637665 157.21079636 -43.71221924 157.22659302 C-54.20945837 157.22811751 -63.83484252 156.33623536 -73 151 C-74.8747021 149.99944163 -76.74972061 148.99947596 -78.625 148 C-98.23322869 137.18445708 -110.66662637 120.85214696 -117.30859375 99.5859375 C-119.04666879 93.08534047 -119.18341641 87.01366917 -119.1875 80.3125 C-119.19974609 79.27416016 -119.21199219 78.23582031 -119.22460938 77.16601562 C-119.26537251 55.49361332 -110.56359402 36.87966138 -95.6875 21.375 C-68.72621627 -4.76789738 -34.92801321 -1.51860927 0 0 Z " fill="#01E474" transform="translate(258,132)"/>
<path d="M0 0 C7.53968904 -0.12809756 15.07909163 -0.21488857 22.61962891 -0.2746582 C25.1780038 -0.29960775 27.73630887 -0.33357977 30.29443359 -0.37719727 C54.0763759 -0.77216895 73.9743873 2.40032805 93 18 C95.57843804 20.49718474 97.79101551 23.17444182 100 26 C100.72058594 26.87398437 101.44117188 27.74796875 102.18359375 28.6484375 C116.51428579 46.67659308 120.75799182 66.26048169 119 89 C117.58811834 100.69346782 112.65306655 110.81983703 107 121 C106.46503906 121.97582031 105.93007813 122.95164062 105.37890625 123.95703125 C104.92386719 124.63121094 104.46882812 125.30539062 104 126 C103.34 126 102.68 126 102 126 C101.71898437 126.59425781 101.43796875 127.18851562 101.1484375 127.80078125 C94.0646525 141.36598857 77.92655359 149.13758783 64.25 154.3125 C50.33544171 158.55653506 34.40467124 157.1265636 20 157.0625 C13.4 157.041875 6.8 157.02125 0 157 C0 138.52 0 120.04 0 101 C22.625 100.5625 22.625 100.5625 29.73681641 100.43188477 C31.60840554 100.39373903 33.47998809 100.35526798 35.3515625 100.31640625 C36.31408936 100.29993042 37.27661621 100.28345459 38.26831055 100.26647949 C42.94279162 100.16538673 47.40175858 99.94590471 52 99 C52.061875 98.46375 52.12375 97.9275 52.1875 97.375 C53 95 53 95 55.375 92.25 C59.41296793 87.56642673 61.37705723 82.72884762 60.9375 76.5 C59.95192442 70.42927382 57.98462374 65.63180174 53.1875 61.6875 C52.135625 61.130625 51.08375 60.57375 50 60 C48.989375 59.443125 47.97875 58.88625 46.9375 58.3125 C43.54089451 56.89975258 40.34362416 56.75131392 36.6875 56.5625 C24.90917748 55.88558491 16.05978931 50.62630306 7.8984375 42.29296875 C2.69210848 36.004666 -0.13572679 28.90980631 -0.09765625 20.80078125 C-0.09443359 19.59228516 -0.09121094 18.38378906 -0.08789062 17.13867188 C-0.07951172 15.87603516 -0.07113281 14.61339844 -0.0625 13.3125 C-0.05573242 11.40114258 -0.05573242 11.40114258 -0.04882812 9.45117188 C-0.03702873 6.30073436 -0.02056597 3.15039051 0 0 Z " fill="#01E435" transform="translate(414,132)"/>
<path d="M0 0 C4.41122475 2.59042134 7.52083913 6.50339288 10.625 10.5 C11.594375 9.613125 12.56375 8.72625 13.5625 7.8125 C22.22562206 0.38193596 29.72951103 -1.88278494 41.01171875 -1.77734375 C49.12969167 -1.15423448 56.28983823 2.28510411 61.625 8.5 C65.21367446 14.16747978 66.75389332 19.30251075 66.73852539 26.00292969 C66.73841209 27.65418854 66.73841209 27.65418854 66.73829651 29.33880615 C66.73313522 30.52121887 66.72797394 31.70363159 66.72265625 32.921875 C66.7212413 34.13699768 66.71982635 35.35212036 66.71836853 36.60406494 C66.71276988 40.48606831 66.7002176 44.36801406 66.6875 48.25 C66.68248483 50.88150958 66.67792195 53.51302007 66.67382812 56.14453125 C66.66280089 62.59637383 66.64606408 69.0481828 66.625 75.5 C63.14585059 75.52887814 59.66673169 75.54675687 56.1875 75.5625 C54.69766602 75.57506836 54.69766602 75.57506836 53.17773438 75.58789062 C52.23349609 75.59111328 51.28925781 75.59433594 50.31640625 75.59765625 C49.44185791 75.60289307 48.56730957 75.60812988 47.66625977 75.61352539 C45.625 75.5 45.625 75.5 44.625 74.5 C44.51818872 73.02808016 44.47880123 71.5511847 44.46728516 70.07543945 C44.45702301 69.13388504 44.44676086 68.19233063 44.43618774 67.22224426 C44.42888641 66.19628647 44.42158508 65.17032867 44.4140625 64.11328125 C44.38598339 61.95637276 44.35731886 59.79947182 44.328125 57.64257812 C44.28691481 54.23022759 44.25004269 50.81801653 44.22363281 47.40551758 C44.19597991 44.12030547 44.15009335 40.83574248 44.1015625 37.55078125 C44.09830963 36.53494461 44.09505676 35.51910797 44.09170532 34.4724884 C43.99884359 29.10635034 43.74502329 25.08170136 40.625 20.5 C36.35286459 17.65190973 32.63674323 17.89109662 27.625 18.5 C23.30223159 20.38629894 21.99086017 21.71528506 19.99682617 25.9921875 C18.2281764 31.00812792 18.14902771 35.84951013 18.11328125 41.125 C18.08635445 42.60625366 18.08635445 42.60625366 18.05888367 44.11743164 C18.00507319 47.2449121 17.970979 50.37224252 17.9375 53.5 C17.9043011 55.63153116 17.86980909 57.7630426 17.83398438 59.89453125 C17.74936398 65.09621951 17.68089138 70.29792792 17.625 75.5 C14.14585059 75.52887814 10.66673169 75.54675687 7.1875 75.5625 C5.69766602 75.57506836 5.69766602 75.57506836 4.17773438 75.58789062 C2.76137695 75.59272461 2.76137695 75.59272461 1.31640625 75.59765625 C0.44185791 75.60289307 -0.43269043 75.60812988 -1.33374023 75.61352539 C-3.375 75.5 -3.375 75.5 -4.375 74.5 C-4.48190199 72.99742791 -4.52120575 71.48996873 -4.53271484 69.98364258 C-4.54297699 69.02206741 -4.55323914 68.06049225 -4.56381226 67.06977844 C-4.57476425 65.49803108 -4.57476425 65.49803108 -4.5859375 63.89453125 C-4.6140162 61.69204999 -4.64268073 59.48957613 -4.671875 57.28710938 C-4.71308886 53.80233037 -4.74996069 50.31768809 -4.77636719 46.83276367 C-4.8040152 43.47805883 -4.8499015 40.12399029 -4.8984375 36.76953125 C-4.90169037 35.73182083 -4.90494324 34.69411041 -4.90829468 33.62495422 C-5.00013082 28.20709645 -5.23701945 24.13877474 -8.375 19.5 C-12.13436376 17.62031812 -16.29198301 17.84184204 -20.375 18.5 C-24.35629682 20.75464121 -26.92222828 23.14168485 -28.375 27.5 C-28.48437012 29.04380637 -28.54096127 30.5916628 -28.56445312 32.13916016 C-28.58117065 33.07668121 -28.59788818 34.01420227 -28.6151123 34.98013306 C-28.62868774 35.98957977 -28.64226318 36.99902649 -28.65625 38.0390625 C-28.67465942 39.0756601 -28.69306885 40.11225769 -28.71203613 41.18026733 C-28.79083516 45.62300152 -28.85864718 50.06588748 -28.92724609 54.50878906 C-28.97882188 57.74812676 -29.03611652 60.98732786 -29.09375 64.2265625 C-29.10732544 65.24005768 -29.12090088 66.25355286 -29.1348877 67.29776001 C-29.15160522 68.22897675 -29.16832275 69.16019348 -29.18554688 70.11962891 C-29.20433899 71.35514999 -29.20433899 71.35514999 -29.22351074 72.6156311 C-29.375 74.5 -29.375 74.5 -30.375 75.5 C-37.305 75.5 -44.235 75.5 -51.375 75.5 C-51.375 50.42 -51.375 25.34 -51.375 -0.5 C-44.115 -0.5 -36.855 -0.5 -29.375 -0.5 C-29.045 1.48 -28.715 3.46 -28.375 5.5 C-27.67375 4.901875 -26.9725 4.30375 -26.25 3.6875 C-18.59350598 -2.13809327 -9.15494451 -4.02316897 0 0 Z " fill="#2A2A2A" transform="translate(747.375,177.5)"/>
<path d="M0 0 C0.7425 0.721875 1.485 1.44375 2.25 2.1875 C0.76364884 6.40404356 -1.36249159 9.81228605 -3.875 13.5 C-4.96167969 15.10294922 -4.96167969 15.10294922 -6.0703125 16.73828125 C-6.62460937 17.54652344 -7.17890625 18.35476562 -7.75 19.1875 C-11.13933085 17.8894584 -14.30311448 16.40086348 -17.5 14.6875 C-25.00152012 10.93118326 -32.43968145 8.91047272 -40.75 11.1875 C-43.4215404 12.69029176 -43.4215404 12.69029176 -44.75 15.1875 C-45.41666667 18.1875 -45.41666667 18.1875 -44.75 21.1875 C-41.66559669 25.18494806 -38.07360053 26.33198732 -33.375 27.625 C-31.93952953 28.05014793 -30.50464298 28.47727178 -29.0703125 28.90625 C-28.34875977 29.11894531 -27.62720703 29.33164063 -26.88378906 29.55078125 C-15.04145765 33.08451126 -5.09118433 36.82347506 2.25 47.1875 C5.49839064 55.18265865 5.90202041 65.2679063 2.5625 73.3125 C0.65409092 76.89412689 -1.65005485 79.54120536 -4.75 82.1875 C-5.471875 82.868125 -6.19375 83.54875 -6.9375 84.25 C-12.86306768 88.33205773 -19.57449631 90.67496402 -26.75 91.1875 C-27.46285156 91.2390625 -28.17570313 91.290625 -28.91015625 91.34375 C-45.85991 92.00520381 -61.13891965 85.16381068 -73.75 74.1875 C-71.43628822 70.0443417 -68.62866725 66.47479407 -65.5625 62.875 C-65.09908203 62.32521484 -64.63566406 61.77542969 -64.15820312 61.20898438 C-63.02528137 59.86582972 -61.8880774 58.52628899 -60.75 57.1875 C-57.45200031 58.73995419 -54.48092526 60.62331295 -51.4375 62.625 C-43.19909719 67.87357186 -35.80506037 71.35944717 -25.875 69.4375 C-22.16632544 68.057192 -22.16632544 68.057192 -19.75 65.1875 C-19.08278464 62.27309301 -19.08278464 62.27309301 -19.75 59.1875 C-24.07045972 53.10002081 -30.51853075 52.12574069 -37.4375 50.25 C-48.77307991 47.16316499 -60.09569978 43.59608446 -66.75 33.1875 C-70.49343974 25.12065098 -70.7670261 15.54341099 -67.75 7.1875 C-63.68504211 -0.28935698 -57.19107155 -5.79380462 -49.1875 -8.625 C-33.36616797 -13.23052474 -13.02437709 -10.74206802 0 0 Z " fill="#282828" transform="translate(675.75,162.8125)"/>
<path d="M0 0 C5.61 0 11.22 0 17 0 C17 13.86 17 27.72 17 42 C32.51 42 48.02 42 64 42 C64 28.14 64 14.28 64 0 C69.61 0 75.22 0 81 0 C81 32.34 81 64.68 81 98 C75.72 98 70.44 98 65 98 C64 97 64 97 63.88647461 93.30639648 C63.88672573 91.66128709 63.89228816 90.01617243 63.90234375 88.37109375 C63.90335083 87.60543091 63.90435791 86.83976807 63.90539551 86.05090332 C63.91064337 83.17975373 63.92460453 80.30862542 63.9375 77.4375 C63.9684375 67.8159375 63.9684375 67.8159375 64 58 C48.49 58 32.98 58 17 58 C17 71.2 17 84.4 17 98 C11.39 98 5.78 98 0 98 C0 65.66 0 33.32 0 0 Z " fill="#282828" transform="translate(1037,155)"/>
<path d="M0 0 C6.17953364 4.65084398 8.64828547 11.28074687 9.92578125 18.71484375 C10.01345161 20.48826709 10.05362283 22.2644507 10.05517578 24.04003906 C10.05832794 25.07751282 10.0614801 26.11498657 10.06472778 27.18389893 C10.06169144 28.84663849 10.06169144 28.84663849 10.05859375 30.54296875 C10.05955048 31.68771667 10.0605072 32.8324646 10.06149292 34.01190186 C10.06217239 36.42590388 10.06033438 38.83990775 10.05615234 41.25390625 C10.05078119 44.96488496 10.05611532 48.67574371 10.0625 52.38671875 C10.06183956 54.73046902 10.06055912 57.07421921 10.05859375 59.41796875 C10.06061798 60.53455872 10.06264221 61.65114868 10.06472778 62.80157471 C10.05999954 64.33887238 10.05999954 64.33887238 10.05517578 65.90722656 C10.05438019 66.81369934 10.05358459 67.72017212 10.05276489 68.65411377 C9.92578125 70.71484375 9.92578125 70.71484375 8.92578125 71.71484375 C7.51008002 71.80135986 6.09018625 71.82189279 4.671875 71.8125 C3.81787109 71.80927734 2.96386719 71.80605469 2.08398438 71.80273438 C1.18615234 71.79435547 0.28832031 71.78597656 -0.63671875 71.77734375 C-1.53841797 71.77283203 -2.44011719 71.76832031 -3.36914062 71.76367188 C-5.60423189 71.751846 -7.83919312 71.73536595 -10.07421875 71.71484375 C-10.73421875 69.40484375 -11.39421875 67.09484375 -12.07421875 64.71484375 C-12.57050781 65.12476563 -13.06679688 65.5346875 -13.578125 65.95703125 C-21.15423426 71.96616535 -27.16417968 73.27459766 -36.78515625 72.3125 C-44.17107961 70.97040229 -50.2964806 67.66378082 -54.890625 61.6640625 C-58.52997629 55.67054338 -59.73347431 49.63702718 -59.07421875 42.71484375 C-57.54097007 36.73739601 -55.23611623 31.60662309 -49.76953125 28.3359375 C-43.42581138 25.0323089 -38.30038038 23.58035061 -31.1171875 23.6171875 C-30.00537109 23.62041016 -28.89355469 23.62363281 -27.74804688 23.62695312 C-26.59755859 23.63533203 -25.44707031 23.64371094 -24.26171875 23.65234375 C-23.09189453 23.65685547 -21.92207031 23.66136719 -20.71679688 23.66601562 C-17.83588517 23.67777445 -14.95507831 23.69420949 -12.07421875 23.71484375 C-12.51418695 22.42129583 -12.96562853 21.1316465 -13.421875 19.84375 C-13.67203369 19.12517822 -13.92219238 18.40660645 -14.17993164 17.66625977 C-15.02281558 15.46215139 -15.02281558 15.46215139 -17.51171875 13.65234375 C-26.25333207 11.35191919 -34.29331646 13.55770845 -42.07421875 17.71484375 C-43.40662552 18.38336034 -44.73969601 19.05056122 -46.07421875 19.71484375 C-47.5583506 17.78097497 -49.03659303 15.84306302 -50.51171875 13.90234375 C-50.93259766 13.35513672 -51.35347656 12.80792969 -51.78710938 12.24414062 C-53.6856635 9.73804918 -55.07228548 7.72064356 -56.07421875 4.71484375 C-53.57916234 3.41281188 -51.07884193 2.12324109 -48.57421875 0.83984375 C-47.878125 0.47503906 -47.18203125 0.11023438 -46.46484375 -0.265625 C-32.35563758 -7.45086888 -13.75029801 -8.51948784 0 0 Z M-37.07421875 43.71484375 C-37.13974846 47.45003741 -36.93644975 49.68016655 -34.51171875 52.58984375 C-29.40987025 54.94454306 -25.57166226 55.1890342 -20.32421875 53.52734375 C-16.15446418 51.21677676 -16.15446418 51.21677676 -13.07421875 47.71484375 C-12.66305831 45.7155762 -12.66305831 45.7155762 -12.47265625 43.5703125 C-12.34117187 42.29800781 -12.2096875 41.02570313 -12.07421875 39.71484375 C-15.30307884 39.598165 -18.5313932 39.52743829 -21.76171875 39.46484375 C-22.67373047 39.43132812 -23.58574219 39.3978125 -24.52539062 39.36328125 C-29.8950771 39.28517672 -33.37987356 39.32974915 -37.07421875 43.71484375 Z " fill="#2A2A2A" transform="translate(887.07421875,181.28515625)"/>
<path d="M0 0 C5.28 0 10.56 0 16 0 C16.33 12.87 16.66 25.74 17 39 C18.98 36.525 18.98 36.525 21 34 C23.25390625 32.453125 23.25390625 32.453125 25.5625 31.25 C26.70912109 30.63898438 26.70912109 30.63898438 27.87890625 30.015625 C34.61643939 26.7895502 43.58832946 26.85830186 50.77734375 28.71875 C57.32590907 31.49489393 62.84255075 35.50168909 66.19718933 41.94400024 C69.2395361 49.73545651 69.29031295 58.29364738 69.23046875 66.5390625 C69.23001053 67.58653656 69.22955231 68.63401062 69.2290802 69.71322632 C69.22608367 71.90306751 69.21827655 74.09290708 69.20581055 76.28271484 C69.1873587 79.65079177 69.18530256 83.01859615 69.18554688 86.38671875 C69.18063803 88.52083573 69.1748125 90.65495085 69.16796875 92.7890625 C69.16685593 93.79933502 69.1657431 94.80960754 69.16459656 95.85049438 C69.15821671 96.77591034 69.15183685 97.70132629 69.14526367 98.65478516 C69.14145187 99.47210114 69.13764008 100.28941711 69.13371277 101.13150024 C69 103 69 103 68 104 C65.48863896 104.09975032 63.01096585 104.13882183 60.5 104.125 C59.79746094 104.12886719 59.09492187 104.13273437 58.37109375 104.13671875 C53.12661378 104.12661378 53.12661378 104.12661378 52 103 C51.89329785 101.56933484 51.85380957 100.13356701 51.84228516 98.69897461 C51.83202301 97.78389633 51.82176086 96.86881805 51.81118774 95.92601013 C51.80388641 94.92820023 51.79658508 93.93039032 51.7890625 92.90234375 C51.76097452 90.80012268 51.73230994 88.69790925 51.703125 86.59570312 C51.66198648 83.27352264 51.62511143 79.9514818 51.59863281 76.62915039 C51.57089243 73.42824511 51.52499719 70.2279941 51.4765625 67.02734375 C51.47330963 66.04370346 51.47005676 65.06006317 51.46670532 64.0466156 C51.34194544 56.98911206 50.70905197 50.77851484 45.5625 45.5 C39.7188117 43.03949966 33.69299954 42.93632052 27.5859375 44.6953125 C22.89776552 46.78479739 20.40617278 49.38014827 18 54 C17.09572648 56.93042472 16.85351138 59.6174083 16.79467773 62.67675781 C16.77473251 63.59741028 16.75478729 64.51806274 16.73423767 65.46661377 C16.70916893 66.94493683 16.70916893 66.94493683 16.68359375 68.453125 C16.66281265 69.46848328 16.64203156 70.48384155 16.62062073 71.52996826 C16.55529403 74.76991073 16.49631863 78.00993348 16.4375 81.25 C16.39429874 83.44792493 16.35068393 85.64584178 16.30664062 87.84375 C16.19962988 93.22908461 16.09831478 98.6144999 16 104 C10.72 104 5.44 104 0 104 C0 69.68 0 35.36 0 0 Z " fill="#2A2A2A" transform="translate(1406,149)"/>
<path d="M0 0 C8.05110409 5.7065518 12.76728307 12.93407158 14.6953125 22.57421875 C14.6953125 28.18421875 14.6953125 33.79421875 14.6953125 39.57421875 C-4.4446875 39.57421875 -23.5846875 39.57421875 -43.3046875 39.57421875 C-40.38434783 47.39443612 -40.38434783 47.39443612 -35.2421875 52.07421875 C-34.57058594 52.53828125 -33.89898438 53.00234375 -33.20703125 53.48046875 C-27.11621236 56.98237694 -19.10522727 56.06904662 -12.3046875 55.57421875 C-7.65709763 54.21164523 -4.11191927 51.50285857 -0.3046875 48.57421875 C1.6953125 48.57421875 1.6953125 48.57421875 3.421875 50.21875 C4.04835938 50.93417969 4.67484375 51.64960938 5.3203125 52.38671875 C5.95195313 53.09441406 6.58359375 53.80210937 7.234375 54.53125 C8.6953125 56.57421875 8.6953125 56.57421875 8.6953125 59.57421875 C1.7698638 67.92484018 -9.17628318 70.75563386 -19.515625 71.796875 C-31.18213267 72.2812246 -40.98702451 68.35133303 -49.49609375 60.5703125 C-57.68821441 52.13680338 -60.42655299 42.18190673 -60.3046875 30.57421875 C-59.49462018 20.01441259 -55.33619838 9.71527951 -47.3046875 2.57421875 C-33.36200202 -7.42111703 -14.89152148 -9.21255143 0 0 Z M-39.8046875 16.13671875 C-42.77107543 20.94508708 -42.77107543 20.94508708 -43.3046875 26.57421875 C-29.7746875 26.57421875 -16.2446875 26.57421875 -2.3046875 26.57421875 C-2.3046875 20.3173569 -2.59205241 19.18992724 -6.3046875 14.57421875 C-11.86623138 9.44048594 -16.94769254 8.05074182 -24.3828125 8.19140625 C-30.51659242 8.99502982 -35.51629404 11.74111545 -39.8046875 16.13671875 Z " fill="#2B2B2B" transform="translate(1197.3046875,182.42578125)"/>
<path d="M0 0 C5.67383114 4.11248203 8.07937539 10.22077202 9.21484375 16.90234375 C9.30272875 18.70638346 9.34268884 20.51315748 9.34423828 22.31933594 C9.34739044 23.37683044 9.3505426 24.43432495 9.35379028 25.52386475 C9.35075394 27.21941498 9.35075394 27.21941498 9.34765625 28.94921875 C9.34861298 30.11616272 9.3495697 31.28310669 9.35055542 32.4854126 C9.35123495 34.94649306 9.34939652 37.40757534 9.34521484 39.86865234 C9.33984415 43.65205866 9.34517742 47.43534729 9.3515625 51.21875 C9.35090206 53.60807318 9.3496216 55.99739629 9.34765625 58.38671875 C9.34968048 59.5251825 9.35170471 60.66364624 9.35379028 61.83660889 C9.34906204 63.40393768 9.34906204 63.40393768 9.34423828 65.00292969 C9.34344269 65.92716736 9.34264709 66.85140503 9.34182739 67.8036499 C9.21484375 69.90234375 9.21484375 69.90234375 8.21484375 70.90234375 C5.8617082 70.97506116 3.50650707 70.98605243 1.15234375 70.96484375 C-0.78318359 70.95130859 -0.78318359 70.95130859 -2.7578125 70.9375 C-3.75683594 70.92589844 -4.75585938 70.91429687 -5.78515625 70.90234375 C-6.28015625 66.94234375 -6.28015625 66.94234375 -6.78515625 62.90234375 C-7.50703125 63.64484375 -8.22890625 64.38734375 -8.97265625 65.15234375 C-14.57470341 69.82293414 -22.86965943 72.06265078 -30.09765625 72.27734375 C-38.66641224 71.40594484 -45.94195563 69.15569416 -52.03515625 62.77734375 C-56.30617242 57.41853526 -58.17379572 51.10797685 -57.78515625 44.27734375 C-56.77810513 38.15923748 -53.770132 33.69366333 -49.22265625 29.58984375 C-39.86339319 24.99529643 -30.29709901 24.48847737 -20.03515625 24.71484375 C-18.25625 24.73514648 -18.25625 24.73514648 -16.44140625 24.75585938 C-13.55548932 24.79076966 -10.67058361 24.83979836 -7.78515625 24.90234375 C-8.0678674 23.28746907 -8.36165851 21.67453131 -8.66015625 20.0625 C-8.82257813 19.164104 -8.985 18.26570801 -9.15234375 17.34008789 C-9.95722168 14.23950682 -11.19895793 12.76117379 -13.78515625 10.90234375 C-19.12660428 8.23161973 -28.22245787 9.21526706 -33.859375 10.7265625 C-36.24189794 11.68455752 -38.50966529 12.71475418 -40.78515625 13.90234375 C-41.53410156 14.27617187 -42.28304688 14.65 -43.0546875 15.03515625 C-43.62574219 15.32132813 -44.19679688 15.6075 -44.78515625 15.90234375 C-45.98498405 14.47511716 -47.16971385 13.03518599 -48.34765625 11.58984375 C-49.00894531 10.78933594 -49.67023438 9.98882812 -50.3515625 9.1640625 C-50.82464844 8.41769531 -51.29773437 7.67132813 -51.78515625 6.90234375 C-50.25072917 2.2990625 -46.96994602 1.06095367 -42.78515625 -1.09765625 C-29.49179498 -7.45713464 -12.65762633 -7.78291685 0 0 Z M-39.66015625 41.71484375 C-41.48205937 45.25743314 -41.23722644 48.32009809 -40.16015625 52.08984375 C-37.30870378 55.84857655 -33.43407298 56.76405002 -28.97265625 57.71484375 C-22.93745027 58.25720452 -17.18110058 57.33765023 -12.34765625 53.52734375 C-9.38669446 50.49416338 -7.91253764 48.58377808 -7.58984375 44.32421875 C-7.61304688 43.4425 -7.63625 42.56078125 -7.66015625 41.65234375 C-7.67820312 40.7603125 -7.69625 39.86828125 -7.71484375 38.94921875 C-7.73804688 38.27375 -7.76125 37.59828125 -7.78515625 36.90234375 C-11.6600126 36.81482962 -15.53461268 36.7617794 -19.41015625 36.71484375 C-20.50457031 36.68970703 -21.59898438 36.66457031 -22.7265625 36.63867188 C-29.51108431 36.5769944 -34.54387395 36.7691042 -39.66015625 41.71484375 Z " fill="#2D2D2D" transform="translate(1279.78515625,182.09765625)"/>
<path d="M0 0 C7.26 0 14.52 0 22 0 C22 7.26 22 14.52 22 22 C27.94 22 33.88 22 40 22 C40.020625 24.454375 40.04125 26.90875 40.0625 29.4375 C40.071604 30.21150146 40.08070801 30.98550293 40.09008789 31.78295898 C40.09724913 33.52221717 40.05024702 35.26145304 40 37 C39 38 39 38 35.18359375 38.09765625 C33.60153318 38.09098089 32.01948841 38.07901875 30.4375 38.0625 C29.63119141 38.05798828 28.82488281 38.05347656 27.99414062 38.04882812 C25.99606244 38.03700518 23.99802217 38.01906914 22 38 C22.09352117 43.21475559 22.19961178 48.42904614 22.31738281 53.64331055 C22.35567679 55.41732771 22.39052895 57.19142264 22.421875 58.96557617 C22.46751672 61.51509399 22.52551185 64.0640763 22.5859375 66.61328125 C22.59748871 67.40712723 22.60903992 68.20097321 22.62094116 69.01887512 C22.72355385 72.84323908 22.83064066 74.74596099 25 78 C26.71380616 79.03557297 26.71380616 79.03557297 29 79 C32.67177581 77.64724049 35.74373423 76.17084385 39 74 C41.64 79.28 44.28 84.56 47 90 C40.21677428 95.6526881 34.2513962 98.44722145 25.4375 99.375 C17.42864676 98.50130692 10.81424005 95.65638738 5 90 C1.47077046 85.28756056 -0.13154552 80.62074874 -0.11352539 74.78222656 C-0.11344986 73.96167786 -0.11337433 73.14112915 -0.11329651 72.29571533 C-0.10813522 71.41953552 -0.10297394 70.54335571 -0.09765625 69.640625 C-0.0962413 68.73624695 -0.09482635 67.8318689 -0.09336853 66.90008545 C-0.08777911 64.01668973 -0.07522853 61.13337218 -0.0625 58.25 C-0.05748363 56.29296987 -0.05292096 54.33593853 -0.04882812 52.37890625 C-0.03781313 47.58590747 -0.02055574 42.79296698 0 38 C-2.97 38 -5.94 38 -9 38 C-9 32.72 -9 27.44 -9 22 C-6.03 22 -3.06 22 0 22 C0 14.74 0 7.48 0 0 Z " fill="#2A2A2A" transform="translate(976,155)"/>
<path d="M0 0 C5.61 0 11.22 0 17 0 C17 7.59 17 15.18 17 23 C23.27 23 29.54 23 36 23 C36 27.29 36 31.58 36 36 C29.73 36 23.46 36 17 36 C17.05107118 41.89106102 17.11403212 47.77948891 17.20751953 53.66967773 C17.23571261 55.67252076 17.25693542 57.6754747 17.27099609 59.6784668 C17.29244854 62.56096107 17.33911056 65.44212409 17.390625 68.32421875 C17.39185364 69.21711105 17.39308228 70.11000336 17.39434814 71.029953 C17.49210957 75.19697147 17.66147076 77.45326223 19.89941406 81.06762695 C22.3164372 83.29109721 23.26529474 83.63293309 26.5 83.5 C30.15994585 83.30705393 32.38254986 82.73125232 35 80 C38.39460785 81.37928277 39.72525168 82.64656429 41.3125 85.9375 C41.65925781 86.62714844 42.00601562 87.31679687 42.36328125 88.02734375 C43 90 43 90 42 93 C40.109375 94.3515625 40.109375 94.3515625 37.75 95.625 C36.98171875 96.05039063 36.2134375 96.47578125 35.421875 96.9140625 C28.44071 100.04432681 21.2755462 99.62413532 14.20703125 97.03515625 C8.1303563 94.18503437 4.54989115 90.02998596 1.7265625 84.02734375 C-0.22772465 78.57425217 -0.131538 73.26085299 -0.09765625 67.54296875 C-0.0962413 66.64000565 -0.09482635 65.73704254 -0.09336853 64.80671692 C-0.08778823 61.93361037 -0.07523934 59.06058284 -0.0625 56.1875 C-0.05748245 54.23502717 -0.05291999 52.28255311 -0.04882812 50.33007812 C-0.03782525 45.55335515 -0.02057418 40.77669096 0 36 C-2.97 36 -5.94 36 -9 36 C-9 31.71 -9 27.42 -9 23 C-6.03 23 -3.06 23 0 23 C0 15.41 0 7.82 0 0 Z " fill="#2D2D2D" transform="translate(1351,155)"/>
<path d="M0 0 C0 6.6 0 13.2 0 20 C-1.711875 20.268125 -3.42375 20.53625 -5.1875 20.8125 C-11.15448913 21.92174798 -14.47666651 23.0112035 -18.25 27.9375 C-20.4546489 31.79563557 -21.11249667 34.80087979 -21.18945312 39.2019043 C-21.20617065 40.01922531 -21.22288818 40.83654633 -21.2401123 41.67863464 C-21.25368774 42.5516774 -21.26726318 43.42472015 -21.28125 44.32421875 C-21.29965942 45.22622513 -21.31806885 46.12823151 -21.33703613 47.05757141 C-21.41567942 50.91399361 -21.48370401 54.77058426 -21.55224609 58.62719727 C-21.60381603 61.44296319 -21.66110085 64.25857182 -21.71875 67.07421875 C-21.73232544 67.9533342 -21.74590088 68.83244965 -21.7598877 69.73820496 C-21.88713037 75.88713037 -21.88713037 75.88713037 -23 77 C-29.93 77 -36.86 77 -44 77 C-44 51.92 -44 26.84 -44 1 C-36.74 1 -29.48 1 -22 1 C-21.67 3.31 -21.34 5.62 -21 8 C-20.41992188 7.59007812 -19.83984375 7.18015625 -19.2421875 6.7578125 C-12.58935716 2.16889652 -8.28549668 0 0 0 Z " fill="#292929" transform="translate(959,176)"/>
<path d="M0 0 C5.28 0 10.56 0 16 0 C16 34.32 16 68.64 16 104 C10.72 104 5.44 104 0 104 C0 69.68 0 35.36 0 0 Z " fill="#252525" transform="translate(1310,149)"/>
<path d="M0 0 C0 0.66 0 1.32 0 2 C1.32 1.67 2.64 1.34 4 1 C4.268125 1.969375 4.53625 2.93875 4.8125 3.9375 C5.4003125 5.4534375 5.4003125 5.4534375 6 7 C6.99 7.33 7.98 7.66 9 8 C10.1875 10.5625 10.1875 10.5625 11 13 C10.34 13 9.68 13 9 13 C9.31710937 13.82757813 9.63421875 14.65515625 9.9609375 15.5078125 C11.09475973 19.31847819 11.44161689 22.93226312 11.625 26.875 C11.66367187 27.56335938 11.70234375 28.25171875 11.7421875 28.9609375 C11.83548166 30.64023246 11.91878238 32.32007767 12 34 C12.99 34.33 13.98 34.66 15 35 C15 35.66 15 36.32 15 37 C15.66 37 16.32 37 17 37 C17.28875 38.134375 17.5775 39.26875 17.875 40.4375 C18.24625 41.613125 18.6175 42.78875 19 44 C19.99 44.495 19.99 44.495 21 45 C22.05352843 47.30965848 23.05719096 49.6429774 24 52 C18.18670948 50.06223649 15.20235237 43.0315609 12.1875 37.9375 C9.68378491 31.74409952 8.92501652 25.41437546 8.125 18.8125 C7.10987605 11.5582681 5.90168827 8.28430779 0.0625 3.6875 C-5.36128335 0.69888469 -10.89705768 0.42326146 -17 1 C-23.73746477 3.13353051 -27.30191147 6.38803895 -31.11352539 12.25097656 C-34.10414805 18.42192784 -33.55539159 25.09022861 -33.49609375 31.796875 C-33.49624908 33.23643059 -33.49774367 34.6759866 -33.50050354 36.11553955 C-33.5018828 39.12474182 -33.48941622 42.13346478 -33.46655273 45.14257812 C-33.43827185 48.96627525 -33.44088363 52.78917104 -33.45364285 56.61292648 C-33.46066095 59.58500797 -33.45273998 62.55691024 -33.44038582 65.52896881 C-33.43592325 66.93691567 -33.43548813 68.34488215 -33.43945122 69.75283051 C-33.45270705 78.60952234 -32.60624358 86.51812238 -30 95 C-30.99 95 -31.98 95 -33 95 C-33 94.01 -33 93.02 -33 92 C-33.99 91.67 -34.98 91.34 -36 91 C-35.979375 89.865625 -35.95875 88.73125 -35.9375 87.5625 C-35.58422523 84.18424326 -35.58422523 84.18424326 -37 83 C-37.11516179 80.98737315 -37.15968773 78.97067855 -37.17700195 76.95483398 C-37.18983719 75.65936142 -37.20267242 74.36388885 -37.21589661 73.02915955 C-37.22406731 71.60147483 -37.2315104 70.17378579 -37.23828125 68.74609375 C-37.24235678 68.02884691 -37.2464323 67.31160007 -37.25063133 66.57261848 C-37.27152321 62.77033906 -37.28580669 58.96809596 -37.29516602 55.16577148 C-37.30618765 51.25066624 -37.34052823 47.33613614 -37.38033772 43.42123318 C-37.40659136 40.40217592 -37.41486594 37.38325322 -37.41844749 34.36409187 C-37.42329743 32.92209081 -37.43486581 31.48009511 -37.45348549 30.0382061 C-37.55268234 21.84148331 -37.33653071 16.03132651 -33 9 C-32.62416748 7.67801709 -32.27964133 6.34561867 -32 5 C-31.360625 4.896875 -30.72125 4.79375 -30.0625 4.6875 C-29.381875 4.460625 -28.70125 4.23375 -28 4 C-27.67 3.01 -27.34 2.02 -27 1 C-18.31916569 -1.70386642 -8.89209523 -1.97602116 0 0 Z " fill="#18DAEF" transform="translate(348,71)"/>
<path d="M0 0 C0 18.48 0 36.96 0 56 C-4.95 56.165 -9.9 56.33 -15 56.5 C-17.31837891 56.57831055 -17.31837891 56.57831055 -19.68359375 56.65820312 C-20.92238281 56.69880859 -22.16117188 56.73941406 -23.4375 56.78125 C-24.69433594 56.82314453 -25.95117188 56.86503906 -27.24609375 56.90820312 C-29.93613821 56.97398465 -32.61075375 57.00398854 -35.30029297 56.99291992 C-42.42979444 57.00656355 -48.79171378 58.40572903 -55 62 C-55 61.01 -55 60.02 -55 59 C-50.60690491 55.06933597 -46.98565971 54.50246538 -41.171875 54.2734375 C-38.79026617 54.19909385 -38.79026617 54.19909385 -37 52 C-34.75341797 51.86474609 -34.75341797 51.86474609 -31.9921875 52.0234375 C-31.00605469 52.075 -30.01992187 52.1265625 -29.00390625 52.1796875 C-27.45509766 52.27636719 -27.45509766 52.27636719 -25.875 52.375 C-24.31458984 52.46007812 -24.31458984 52.46007812 -22.72265625 52.546875 C-20.14776582 52.68861209 -17.5738126 52.84004554 -15 53 C-15 53.66 -15 54.32 -15 55 C-13.35 55 -11.7 55 -10 55 C-10 54.34 -10 53.68 -10 53 C-7.69 53 -5.38 53 -3 53 C-3 36.17 -3 19.34 -3 2 C-27.255 1.505 -27.255 1.505 -52 1 C-52 1.66 -52 2.32 -52 3 C-58.435 3.495 -58.435 3.495 -65 4 C-53.52336548 -7.47663452 -10.37693287 -0.45117099 0 0 Z " fill="#03C4A7" transform="translate(258,132)"/>
<path d="M0 0 C0.66 0.33 1.32 0.66 2 1 C1.67 1.99 1.34 2.98 1 4 C0.34 4 -0.32 4 -1 4 C-1.33 5.32 -1.66 6.64 -2 8 C-2.99 8 -3.98 8 -5 8 C-5.04125 8.804375 -5.0825 9.60875 -5.125 10.4375 C-6.44152087 15.79762069 -9.53593541 20.70462443 -13.59765625 24.48828125 C-15.36541455 26.39391485 -15.85409363 28.00640959 -16.5625 30.5 C-16.79066406 31.2734375 -17.01882813 32.046875 -17.25390625 32.84375 C-19.35203016 41.7195831 -20.29556365 50.12409665 -20.2746582 59.24511719 C-20.2823246 61.00093361 -20.2823246 61.00093361 -20.29014587 62.79222107 C-20.30394644 66.62715897 -20.30309312 70.46191536 -20.30078125 74.296875 C-20.30368729 76.29900657 -20.3065988 78.30113821 -20.310188 80.30326867 C-20.32123224 86.58289402 -20.32174757 92.86245951 -20.31567383 99.14208984 C-20.30962015 105.60368826 -20.32199184 112.06506969 -20.3432439 118.52663112 C-20.36088374 124.09635699 -20.36685803 129.66601389 -20.36360615 135.23576665 C-20.361799 138.55304732 -20.36570004 141.87013872 -20.37832069 145.18740082 C-20.39066151 148.8825915 -20.38390832 152.57727828 -20.37231445 156.27246094 C-20.37995819 157.36145187 -20.38760193 158.45044281 -20.39547729 159.57243347 C-20.35389602 165.57067367 -19.69905242 169.64856185 -17 175 C-16.5945897 177.32189536 -16.23927006 179.65515344 -16 182 C-19.56645819 180.21677091 -20.37193396 176.25067623 -21.82421875 172.69921875 C-23.86696256 166.27238024 -24.43072851 159.69531241 -25 153 C-24.01 153 -23.02 153 -22 153 C-22 134.52 -22 116.04 -22 97 C-22.99 96.67 -23.98 96.34 -25 96 C-24.92998602 90.2236534 -24.84151102 84.44795466 -24.73754883 78.67211914 C-24.70475462 76.71646456 -24.67658938 74.76072563 -24.65356445 72.80493164 C-24.34259024 47.060237 -21.44283261 23.30269028 -3.48046875 3.30859375 C-2 2 -2 2 0 2 C0 1.34 0 0.68 0 0 Z " fill="#4DE3F1" transform="translate(280,35)"/>
<path d="M0 0 C2.19164944 3.28747416 2.28679386 4.48494825 2.4140625 8.32421875 C2.47207031 9.86625977 2.47207031 9.86625977 2.53125 11.43945312 C2.5621875 12.51130859 2.593125 13.58316406 2.625 14.6875 C2.68300781 16.31268555 2.68300781 16.31268555 2.7421875 17.97070312 C2.83650509 20.64696467 2.92210005 23.32321843 3 26 C3.9429895 26.00616333 3.9429895 26.00616333 4.9050293 26.01245117 C21.92333158 26.20702611 34.50835351 26.77046217 47.26953125 39.20703125 C47.84058594 39.79871094 48.41164063 40.39039063 49 41 C46 42 46 42 44 41.3125 C42 40 42 40 40.71484375 38.0859375 C38.58793217 35.49876031 36.62569373 34.63004737 33.5625 33.3125 C32.14130859 32.68794922 32.14130859 32.68794922 30.69140625 32.05078125 C26.73341881 30.50550023 23.25995055 29.86475399 19.015625 29.68359375 C18.08105469 29.64169922 17.14648438 29.59980469 16.18359375 29.55664062 C15.21550781 29.51732422 14.24742187 29.47800781 13.25 29.4375 C12.26644531 29.39431641 11.28289062 29.35113281 10.26953125 29.30664062 C7.84648725 29.20077948 5.4233446 29.09869829 3 29 C3.0930012 35.63476153 3.20039292 42.26918293 3.31738281 48.90356445 C3.35546052 51.1564416 3.39034874 53.40937516 3.421875 55.66235352 C3.46798957 58.91703336 3.52590377 62.17133183 3.5859375 65.42578125 C3.59748871 66.41894852 3.60903992 67.41211578 3.62094116 68.43537903 C3.32864078 79.40441621 3.32864078 79.40441621 7 89 C7.04080783 90.99958364 7.04254356 93.00045254 7 95 C7.66 95 8.32 95 9 95 C9.495 99.455 9.495 99.455 10 104 C0.72510919 93.40012479 -0.05570397 74.78880305 -0.31640625 61.34765625 C-0.33505737 60.54871948 -0.3537085 59.74978271 -0.3729248 58.92663574 C-0.44068403 55.97202504 -0.50117433 53.01725123 -0.5625 50.0625 C-0.706875 43.441875 -0.85125 36.82125 -1 30 C-15.85 29.67 -30.7 29.34 -46 29 C-46 28.67 -46 28.34 -46 28 C-30.49 28 -14.98 28 1 28 C0.67 18.76 0.34 9.52 0 0 Z " fill="#70D5EF" transform="translate(256,261)"/>
<path d="M0 0 C0.66 0.33 1.32 0.66 2 1 C1.360625 1.103125 0.72125 1.20625 0.0625 1.3125 C-0.618125 1.539375 -1.29875 1.76625 -2 2 C-2.33 2.99 -2.66 3.98 -3 5 C-16.86 5 -30.72 5 -45 5 C-45.58216191 12.56810479 -46.15089862 20.01490691 -46.31640625 27.58203125 C-46.33718735 28.40708664 -46.35796844 29.23214203 -46.37937927 30.0821991 C-46.44357138 32.65890067 -46.50313751 35.23568314 -46.5625 37.8125 C-46.60580999 39.58399198 -46.64942767 41.35547646 -46.69335938 43.12695312 C-46.79911389 47.41789076 -46.90072679 51.70890773 -47 56 C-40.3469263 55.90709969 -33.69419529 55.79971838 -27.04150391 55.68261719 C-24.78179118 55.64450856 -22.52202154 55.60962525 -20.26220703 55.578125 C-17.00011958 55.53207877 -13.73841796 55.47415186 -10.4765625 55.4140625 C-9.47823395 55.40251129 -8.4799054 55.39096008 -7.45132446 55.37905884 C-1.85019791 55.26315807 3.3517345 54.70389592 8.81314087 53.43515015 C11.93288265 52.81437121 14.82988139 52.86216876 18 53 C5.68475239 61.21016508 -14.77004494 58.12578656 -29 58.0625 C-35.6 58.041875 -42.2 58.02125 -49 58 C-49 39.52 -49 21.04 -49 2 C-26.1875 1.5625 -26.1875 1.5625 -18.99291992 1.43188477 C-17.11376196 1.39376333 -15.234611 1.35529432 -13.35546875 1.31640625 C-12.37759399 1.29993042 -11.39971924 1.28345459 -10.39221191 1.26647949 C-9.45864868 1.24629761 -8.52508545 1.22611572 -7.56323242 1.20532227 C-6.7527092 1.18977798 -5.94218597 1.1742337 -5.10710144 1.15821838 C-2.80853317 1.07190279 -2.80853317 1.07190279 0 0 Z " fill="#00BB87" transform="translate(463,231)"/>
<path d="M0 0 C2.43818936 3.65728405 2.6716692 6.93287895 3.125 11.1875 C3.21136719 11.93708984 3.29773438 12.68667969 3.38671875 13.45898438 C3.59838382 15.30517412 3.80015464 17.15249344 4 19 C9.99567472 19.04960464 15.99122875 19.08581647 21.98706055 19.10986328 C24.02484215 19.11989285 26.06260946 19.13351978 28.1003418 19.15087891 C31.0369826 19.17526127 33.97343235 19.18651377 36.91015625 19.1953125 C38.26682152 19.21079636 38.26682152 19.21079636 39.65089417 19.22659302 C44.83425429 19.22750311 49.09177789 18.68966789 54 17 C54 17.66 54 18.32 54 19 C48.41920373 21.36142038 43.2978978 21.25852373 37.3515625 21.1953125 C36.45332764 21.19329834 35.55509277 21.19128418 34.62963867 21.18920898 C31.29470669 21.17879524 27.95984787 21.15087283 24.625 21.125 C17.15875 21.08375 9.6925 21.0425 2 21 C2 39.48 2 57.96 2 77 C27.245 76.505 27.245 76.505 53 76 C53 76.33 53 76.66 53 77 C48.00794045 78.28341147 43.0072825 78.22514691 37.88671875 78.31640625 C37.02679321 78.33505737 36.16686768 78.3537085 35.28088379 78.3729248 C32.08318898 78.44097885 28.885333 78.50128267 25.6875 78.5625 C18.530625 78.706875 11.37375 78.85125 4 79 C3.67 94.51 3.34 110.02 3 126 C0.46174991 123.46174991 0.74285568 122.57118775 0.7215271 119.05197144 C0.71036362 118.005867 0.69920013 116.95976257 0.68769836 115.88195801 C0.68553818 114.72965698 0.68337799 113.57735596 0.68115234 112.39013672 C0.67110672 111.18040192 0.6610611 109.97066711 0.65071106 108.72427368 C0.62506706 105.4021465 0.60824373 102.08019111 0.59528303 98.75800467 C0.57967921 95.28793028 0.5528803 91.81794313 0.5272522 88.34793091 C0.48041555 81.77482672 0.44369518 75.2017062 0.41057932 68.62852013 C0.37239236 61.14609558 0.32297329 53.66375854 0.27259517 46.18140769 C0.16920269 30.78766833 0.07996619 15.39387995 0 0 Z " fill="#76E0EC" transform="translate(412,212)"/>
<path d="M0 0 C2 1 2 1 2.8449707 3.03393555 C6.02699312 15.10782486 5.32610221 27.42460082 5.1875 39.8125 C5.17242703 42.1621008 5.15874325 44.51171095 5.14648438 46.86132812 C5.1162552 52.57464158 5.05749563 58.2866383 5 64 C20.18 64 35.36 64 51 64 C51 64.33 51 64.66 51 65 C35.49 65 19.98 65 4 65 C4 71.27 4 77.54 4 84 C3.67 84 3.34 84 3 84 C3 78.06 3 72.12 3 66 C0.79183594 66.05220703 0.79183594 66.05220703 -1.4609375 66.10546875 C-3.43228015 66.13363079 -5.40363528 66.16092833 -7.375 66.1875 C-8.34050781 66.21263672 -9.30601562 66.23777344 -10.30078125 66.26367188 C-17.03897584 66.33150605 -22.6712281 65.31140022 -29 63 C-29 62.67 -29 62.34 -29 62 C-22.25 61.875 -22.25 61.875 -20 63 C-18.26131256 63.15266612 -16.51752499 63.24932596 -14.7734375 63.31640625 C-13.3800415 63.37356812 -13.3800415 63.37356812 -11.95849609 63.43188477 C-10.77594238 63.47498779 -9.59338867 63.51809082 -8.375 63.5625 C-6.34585395 63.6402327 -4.3167206 63.71829735 -2.28759766 63.79663086 C-0.79058823 63.85420815 -0.79058823 63.85420815 0.73666382 63.91294861 C1.48356476 63.94167557 2.2304657 63.97040253 3 64 C2.88270088 57.46706383 2.75786513 50.93430346 2.62768555 44.40161133 C2.58426412 42.17736104 2.54259455 39.95307585 2.50268555 37.72875977 C2.44515694 34.53911805 2.38141316 31.3496532 2.31640625 28.16015625 C2.29969376 27.15912369 2.28298126 26.15809113 2.26576233 25.12672424 C2.24581711 24.20584518 2.22587189 23.28496613 2.20532227 22.33618164 C2.18200584 21.11373497 2.18200584 21.11373497 2.15821838 19.86659241 C2.20086137 17.98590881 2.20086137 17.98590881 1 17 C0.76298761 14.14122091 0.57780818 11.30116703 0.4375 8.4375 C0.39431641 7.63119141 0.35113281 6.82488281 0.30664062 5.99414062 C0.20024738 3.99631195 0.09959112 1.9981793 0 0 Z " fill="#84EEEE" transform="translate(410,67)"/>
<path d="M0 0 C-1.39613065 -0.14295891 -2.79189308 -0.28951558 -4.1875 -0.4375 C-4.96480469 -0.51871094 -5.74210937 -0.59992187 -6.54296875 -0.68359375 C-9 -1 -9 -1 -11.203125 -1.5234375 C-15.32104617 -2.22509446 -19.39284544 -2.18432433 -23.5625 -2.1875 C-24.41263672 -2.19974609 -25.26277344 -2.21199219 -26.13867188 -2.22460938 C-26.96044922 -2.22654297 -27.78222656 -2.22847656 -28.62890625 -2.23046875 C-29.7437439 -2.23663208 -29.7437439 -2.23663208 -30.88110352 -2.24291992 C-33.29214937 -1.96650667 -34.84503126 -1.07869156 -37 0 C-38.95072315 -0.03251205 -40.90154171 -0.06728849 -42.8515625 -0.12890625 C-45.89267564 0.05356054 -48.31852645 1.16051607 -51.1015625 2.33203125 C-53.76611122 3.26955765 -56.20904272 3.2093218 -59 3 C-59 3.66 -59 4.32 -59 5 C-61.01171875 6.4375 -61.01171875 6.4375 -63.6875 8 C-64.55761719 8.515625 -65.42773438 9.03125 -66.32421875 9.5625 C-69 11 -69 11 -71.76953125 12 C-72.50558594 12.33 -73.24164063 12.66 -74 13 C-74.33 13.99 -74.66 14.98 -75 16 C-76.98 16.33 -78.96 16.66 -81 17 C-78.96028433 10.880853 -71.7911144 7.70684306 -66.35498047 4.91821289 C-65.37489014 4.43276001 -65.37489014 4.43276001 -64.375 3.9375 C-63.68422363 3.59388428 -62.99344727 3.25026855 -62.28173828 2.89624023 C-45.55565487 -5.20167403 -16.84906926 -11.23271284 0 0 Z " fill="#7DF8F9" transform="translate(363,18)"/>
<path d="M0 0 C0 0.66 0 1.32 0 2 C1.32 1.67 2.64 1.34 4 1 C4.268125 1.969375 4.53625 2.93875 4.8125 3.9375 C5.4003125 5.4534375 5.4003125 5.4534375 6 7 C6.99 7.33 7.98 7.66 9 8 C10.1875 10.5625 10.1875 10.5625 11 13 C10.34 13 9.68 13 9 13 C9.31710937 13.82757813 9.63421875 14.65515625 9.9609375 15.5078125 C11.09475973 19.31847819 11.44161689 22.93226312 11.625 26.875 C11.66367187 27.56335938 11.70234375 28.25171875 11.7421875 28.9609375 C11.83548166 30.64023246 11.91878238 32.32007767 12 34 C12.99 34.33 13.98 34.66 15 35 C15 35.66 15 36.32 15 37 C15.66 37 16.32 37 17 37 C17.28875 38.134375 17.5775 39.26875 17.875 40.4375 C18.24625 41.613125 18.6175 42.78875 19 44 C19.99 44.495 19.99 44.495 21 45 C22.05352843 47.30965848 23.05719096 49.6429774 24 52 C18.18670948 50.06223649 15.20235237 43.0315609 12.1875 37.9375 C9.68378491 31.74409952 8.92501652 25.41437546 8.125 18.8125 C7.10987605 11.5582681 5.90168827 8.28430779 0.0625 3.6875 C-5.36128335 0.69888469 -10.89705768 0.42326146 -17 1 C-24.44834855 3.35864371 -28.34595485 7.96697852 -33 14 C-32.67 11.03 -32.34 8.06 -32 5 C-30.68 4.67 -29.36 4.34 -28 4 C-27.67 3.01 -27.34 2.02 -27 1 C-18.31916569 -1.70386642 -8.89209523 -1.97602116 0 0 Z " fill="#96F8FC" transform="translate(348,71)"/>
<path d="M0 0 C2.27202681 3.62854144 2.27030817 6.71010902 2.30639648 10.93652344 C2.31472 11.62651428 2.32304352 12.31650513 2.33161926 13.02740479 C2.35568056 15.30478594 2.36448765 17.58188027 2.37109375 19.859375 C2.38006498 21.44875166 2.38918691 23.03812747 2.39845276 24.62750244 C2.41493615 27.95969695 2.42264133 31.29179108 2.42553711 34.62402344 C2.43091193 38.8788546 2.46855632 43.1327323 2.51428127 47.38729477 C2.54413654 50.67144141 2.55126253 53.95536115 2.55226326 57.23963165 C2.55645093 58.80723678 2.56882664 60.37484348 2.58978081 61.94231415 C2.69601327 70.57836677 2.60411479 77.09369461 -3 84 C-3.69576773 85.31838139 -4.37029944 86.64881555 -5 88 C-6.65 87.67 -8.3 87.34 -10 87 C-10 87.66 -10 88.32 -10 89 C-16.93 89 -23.86 89 -31 89 C-31.33 88.01 -31.66 87.02 -32 86 C-31.05125 86.165 -30.1025 86.33 -29.125 86.5 C-21.12204757 87.56706032 -15.33490672 88.06673447 -8.59375 83.09375 C-7 82 -7 82 -5 82 C0.04641103 72.27387838 0.41136689 62.90697724 0.29296875 52.1484375 C0.28736165 50.6381574 0.28309683 49.12787178 0.28010559 47.61758423 C0.26874435 43.67527752 0.23935436 39.73331141 0.20599365 35.7911377 C0.17510274 31.75533656 0.16155994 27.71947947 0.14648438 23.68359375 C0.11447455 15.78890758 0.06338633 7.89449636 0 0 Z " fill="#7EE3FB" transform="translate(357,262)"/>
<path d="M0 0 C2.22713364 1.83980605 2.9471637 2.63895196 3.375 5.5625 C3.684375 6.7690625 3.684375 6.7690625 4 8 C5.2375 8.495 5.2375 8.495 6.5 9 C7.325 9.33 8.15 9.66 9 10 C9.8125 12.625 9.8125 12.625 10 15 C10.66 15 11.32 15 12 15 C12.474375 15.639375 12.94875 16.27875 13.4375 16.9375 C14.9091365 19.28372963 14.9091365 19.28372963 18 20 C18.66 20.99 19.32 21.98 20 23 C21.2375 23.2165625 21.2375 23.2165625 22.5 23.4375 C23.325 23.623125 24.15 23.80875 25 24 C25.68486725 25.32407669 26.34870203 26.65909241 27 28 C30.70642288 30.90067878 32.21760558 32 37 32 C37 32.99 37 33.98 37 35 C38.32 35 39.64 35 41 35 C43.25 37.5 43.25 37.5 45 40 C33.46341832 38.27167316 23.37655976 30.64411018 15 23 C14.28199219 22.36320312 13.56398438 21.72640625 12.82421875 21.0703125 C7.26911975 15.8711713 2.51522515 9.76004837 -1 3 C-0.67 2.01 -0.34 1.02 0 0 Z " fill="#47BEF1" transform="translate(267,364)"/>
<path d="M0 0 C0.91120605 0.05236816 1.82241211 0.10473633 2.76123047 0.15869141 C3.74736328 0.21025391 4.73349609 0.26181641 5.74951172 0.31494141 C7.29832031 0.41162109 7.29832031 0.41162109 8.87841797 0.51025391 C10.43882812 0.59533203 10.43882812 0.59533203 12.03076172 0.68212891 C14.60565215 0.82386599 17.17960537 0.97529945 19.75341797 1.13525391 C19.75341797 1.79525391 19.75341797 2.45525391 19.75341797 3.13525391 C24.04341797 3.13525391 28.33341797 3.13525391 32.75341797 3.13525391 C32.75341797 3.46525391 32.75341797 3.79525391 32.75341797 4.13525391 C28.76992046 4.27949457 24.78635975 4.42183391 20.80273438 4.5625 C18.79016682 4.63394926 16.7776511 4.70685368 14.76513672 4.77978516 C3.79627994 5.16562434 3.79627994 5.16562434 -0.86376953 5.11572266 C-7.86393239 5.1561393 -14.15819729 6.61039958 -20.24658203 10.13525391 C-20.24658203 9.14525391 -20.24658203 8.15525391 -20.24658203 7.13525391 C-15.85348694 3.20458988 -12.23224174 2.63771929 -6.41845703 2.40869141 C-3.44258747 2.03403157 -3.02736778 0.18226057 0 0 Z " fill="#35D59B" transform="translate(223.24658203125,183.86474609375)"/>
<path d="M0 0 C16.07288602 4.47932889 29.76249791 16.27571118 39 30 C38.67 30.66 38.34 31.32 38 32 C35.16250088 30.92370723 34.1449414 30.25694158 32.625 27.5625 C31.14978969 24.74246995 31.14978969 24.74246995 27.9375 23.5 C24.34434707 21.6651985 24.40978022 20.6125618 23 17 C21.03081154 15.62156808 19.03335209 14.28189588 17 13 C17 12.34 17 11.68 17 11 C16.278125 10.731875 15.55625 10.46375 14.8125 10.1875 C12 9 12 9 9.4375 7.4375 C7.21853522 6.12887975 5.50924843 5.46467564 3 5 C3 4.01 3 3.02 3 2 C2.01 1.67 1.02 1.34 0 1 C0 0.67 0 0.34 0 0 Z " fill="#61F2F6" transform="translate(363,18)"/>
<path d="M0 0 C0.66 0.33 1.32 0.66 2 1 C1.67 1.99 1.34 2.98 1 4 C0.34 4 -0.32 4 -1 4 C-1.33 5.32 -1.66 6.64 -2 8 C-2.99 8 -3.98 8 -5 8 C-5.04125 8.804375 -5.0825 9.60875 -5.125 10.4375 C-6.44152087 15.79762069 -9.53593541 20.70462443 -13.59765625 24.48828125 C-18.49503761 29.76763107 -18.89533547 40.16407596 -20 47 C-20.33 46.34 -20.66 45.68 -21 45 C-21.66 44.67 -22.32 44.34 -23 44 C-20.1568965 29.04885432 -13.78159137 12.3734952 -2 2 C-1.34 2 -0.68 2 0 2 C0 1.34 0 0.68 0 0 Z " fill="#75F2F7" transform="translate(280,35)"/>
<path d="M0 0 C0.86496094 0.01804687 1.72992188 0.03609375 2.62109375 0.0546875 C3.26175781 0.07789063 3.90242188 0.10109375 4.5625 0.125 C-7.6642524 8.27616827 -27.78870126 5.25345306 -41.9375 5.1875 C-43.83984256 5.18246907 -45.74218642 5.17790901 -47.64453125 5.17382812 C-52.24222058 5.16296233 -56.83984527 5.14578795 -61.4375 5.125 C-61.1075 4.465 -60.7775 3.805 -60.4375 3.125 C-59.85169662 3.11691315 -59.26589325 3.10882629 -58.66233826 3.10049438 C-52.5460804 3.01420438 -46.43013755 2.91469092 -40.31420898 2.80761719 C-38.03398951 2.76941659 -35.75371161 2.73454838 -33.47338867 2.703125 C-30.18907846 2.65728076 -26.90516738 2.59931786 -23.62109375 2.5390625 C-22.60728134 2.52751129 -21.59346893 2.51596008 -20.54893494 2.50405884 C-13.48925795 2.35801162 -6.92145085 -0.18962879 0 0 Z " fill="#1AB277" transform="translate(476.4375,283.875)"/>
<path d="M0 0 C2.19164944 3.28747416 2.28679386 4.48494825 2.4140625 8.32421875 C2.45273437 9.35224609 2.49140625 10.38027344 2.53125 11.43945312 C2.57765625 13.04723633 2.57765625 13.04723633 2.625 14.6875 C2.66367187 15.77095703 2.70234375 16.85441406 2.7421875 17.97070312 C2.83650509 20.64696467 2.92210005 23.32321843 3 26 C3.9429895 26.00616333 3.9429895 26.00616333 4.9050293 26.01245117 C21.92333158 26.20702611 34.50835351 26.77046217 47.26953125 39.20703125 C47.84058594 39.79871094 48.41164063 40.39039063 49 41 C46 42 46 42 44 41.3125 C42 40 42 40 40.71484375 38.0859375 C38.58793217 35.49876031 36.62569373 34.63004737 33.5625 33.3125 C32.61503906 32.89613281 31.66757812 32.47976563 30.69140625 32.05078125 C28.45637355 31.17817777 26.34016376 30.50343949 24 30 C24 29.34 24 28.68 24 28 C16.41 28 8.82 28 1 28 C0.67 18.76 0.34 9.52 0 0 Z " fill="#6CE1E7" transform="translate(256,261)"/>
<path d="M0 0 C6.42903685 5.78613317 6.52211489 11.71665807 7 20 C7 26.93 7 33.86 7 41 C-10.16 41 -27.32 41 -45 41 C-45 40.67 -45 40.34 -45 40 C-28.17 40 -11.34 40 6 40 C5.505 34.06 5.505 34.06 5 28 C4.93970575 25.25058213 4.9120374 22.49996103 4.9375 19.75 C4.94652344 18.46609375 4.95554688 17.1821875 4.96484375 15.859375 C4.97644531 14.91578125 4.98804688 13.9721875 5 13 C4.34 13 3.68 13 3 13 C2.8046875 10.94921875 2.609375 8.8984375 2.4140625 6.84765625 C2.20910156 5.93306641 2.20910156 5.93306641 2 5 C1.34 4.67 0.68 4.34 0 4 C0 2.68 0 1.36 0 0 Z " fill="#3CDB8E" transform="translate(250,248)"/>
<path d="M0 0 C0.66 0.33 1.32 0.66 2 1 C1.360625 1.103125 0.72125 1.20625 0.0625 1.3125 C-0.618125 1.539375 -1.29875 1.76625 -2 2 C-2.33 2.99 -2.66 3.98 -3 5 C-18.03171209 5.14417313 -32.988297 4.78198952 -48 4 C-48 3.34 -48 2.68 -48 2 C-47.44289841 1.98969254 -46.88579681 1.97938507 -46.31181335 1.96876526 C-40.52066308 1.8606998 -34.72966839 1.74610173 -28.9387207 1.62768555 C-26.7766444 1.58433687 -24.61453387 1.54266175 -22.45239258 1.50268555 C-19.34706298 1.44498156 -16.24190564 1.38128728 -13.13671875 1.31640625 C-12.16788254 1.29969376 -11.19904633 1.28298126 -10.20085144 1.26576233 C-9.3001442 1.24581711 -8.39943695 1.22587189 -7.47143555 1.20532227 C-6.67867722 1.18977798 -5.88591888 1.1742337 -5.06913757 1.15821838 C-2.80260226 1.06918774 -2.80260226 1.06918774 0 0 Z " fill="#17C161" transform="translate(463,231)"/>
<path d="M0 0 C1.10526085 3.31578255 1.10074445 5.71773563 1.06591797 9.20874023 C1.05615936 10.49115097 1.04640076 11.77356171 1.03634644 13.09483337 C1.02898342 13.78073988 1.02162041 14.46664639 1.01403427 15.17333794 C0.99195013 17.33179367 0.97790744 19.4901606 0.96633911 21.6486969 C0.93282886 27.78634781 0.89165621 33.92385492 0.82861328 40.0612793 C0.7905951 43.81894108 0.76782643 47.57645003 0.75430679 51.3342762 C0.74633523 52.75622865 0.73284677 54.17816273 0.71337509 55.6000042 C0.59324348 64.53830867 1.337834 72.44427523 4 81 C3.01 81 2.02 81 1 81 C1 80.01 1 79.02 1 78 C0.01 77.67 -0.98 77.34 -2 77 C-1.8925973 67.25568445 -1.77998415 57.51144453 -1.66066074 47.76726723 C-1.6054231 43.24298186 -1.55200175 38.71869003 -1.50268555 34.19433594 C-1.45505441 29.83063392 -1.40271205 25.46701183 -1.34705925 21.103405 C-1.32663002 19.43600827 -1.30791789 17.76858962 -1.29092598 16.10115433 C-1.2668945 13.77129415 -1.23683834 11.44158565 -1.20532227 9.11181641 C-1.19668907 8.07064415 -1.19668907 8.07064415 -1.18788147 7.00843811 C-1.11405216 2.22810432 -1.11405216 2.22810432 0 0 Z " fill="#93FEFF" transform="translate(314,85)"/>
<path d="M0 0 C15.60815324 0.81535129 28.60448727 3.33316554 40 15 C40 15.66 40 16.32 40 17 C39.01 17 38.02 17 37 17 C36.505 16.01 36.505 16.01 36 15 C35.01 14.67 34.02 14.34 33 14 C33 13.34 33 12.68 33 12 C32.34 12 31.68 12 31 12 C31 11.34 31 10.68 31 10 C30.154375 9.731875 29.30875 9.46375 28.4375 9.1875 C25 8 25 8 22 6.4375 C16.43082254 3.93705298 10.00102295 4.24137263 4 4 C4 3.34 4 2.68 4 2 C2.68 1.34 1.36 0.68 0 0 Z " fill="#64E7AD" transform="translate(210,231)"/>
<path d="M0 0 C2.31 0 4.62 0 7 0 C7 0.66 7 1.32 7 2 C12.52417129 2.93745479 17.83694707 3.1320925 23.43359375 3.09765625 C24.31153091 3.0962413 25.18946808 3.09482635 26.0940094 3.09336853 C28.87520882 3.08780821 31.65632526 3.07526321 34.4375 3.0625 C36.33268112 3.05747987 38.22786352 3.05291786 40.12304688 3.04882812 C44.74872948 3.0378518 49.37435071 3.02061482 54 3 C54 3.99 54 4.98 54 6 C56.475 6.495 56.475 6.495 59 7 C59 7.66 59 8.32 59 9 C56.58447166 8.52842468 54.18174132 8.04419053 51.79003906 7.46264648 C44.71550024 5.81703403 37.97992575 5.88540538 30.75 6.0625 C6.85356299 6.35553896 6.85356299 6.35553896 1.15625 1.39453125 C0.7746875 0.93433594 0.393125 0.47414062 0 0 Z " fill="#87ECFC" transform="translate(278,229)"/>
<path d="M0 0 C0 0.33 0 0.66 0 1 C-16.5 1 -33 1 -50 1 C-50 1.66 -50 2.32 -50 3 C-56.435 3.495 -56.435 3.495 -63 4 C-51.45646204 -7.54353796 -14.90270146 -0.83790289 0 0 Z " fill="#5DCEB1" transform="translate(256,132)"/>
<path d="M0 0 C-1.35236577 2.93879484 -2.89942659 5.29232911 -5 7.75 C-5.515625 8.36359375 -6.03125 8.9771875 -6.5625 9.609375 C-8 11 -8 11 -10 11 C-10 11.66 -10 12.32 -10 13 C-12.07289562 14.63820852 -14.13280065 16.14252648 -16.3125 17.625 C-17.20485352 18.25535156 -17.20485352 18.25535156 -18.11523438 18.8984375 C-22.62156301 22 -22.62156301 22 -26 22 C-26 21.01 -26 20.02 -26 19 C-25.01 18.67 -24.02 18.34 -23 18 C-22.67 17.34 -22.34 16.68 -22 16 C-18.9681144 14.11813998 -17.75482645 14 -14 14 C-13.67 12.68 -13.34 11.36 -13 10 C-12.34 10 -11.68 10 -11 10 C-10.34 8.35 -9.68 6.7 -9 5 C-8.01 5 -7.02 5 -6 5 C-6 4.34 -6 3.68 -6 3 C-3.89994105 0.39992701 -3.48266577 0 0 0 Z " fill="#50C2F3" transform="translate(398,376)"/>
<path d="M0 0 C6.0228927 6.0228927 5.35817936 18.79960226 5.4375 26.875 C5.42603332 36.39398611 3.90062232 44.96145365 1 54 C-1.60588672 46.10396732 0.77522526 36.71255244 3 29 C3.86882315 21.31091509 2.19399894 13.93302704 0.65625 6.44140625 C0 3 0 3 0 0 Z " fill="#88F790" transform="translate(528,183)"/>
<path d="M0 0 C2.26883121 1.11820967 4.50702376 2.27306851 6.734375 3.47265625 C7.72953125 3.99730469 8.7246875 4.52195313 9.75 5.0625 C11.22726562 5.85333984 11.22726562 5.85333984 12.734375 6.66015625 C18.83644244 9.16375569 25.46942531 9.15603143 32 9.31640625 C32.7211499 9.33718735 33.4422998 9.35796844 34.18530273 9.37937927 C36.45678507 9.44401934 38.72836862 9.50335551 41 9.5625 C42.55339529 9.6057669 44.10678087 9.64938358 45.66015625 9.69335938 C49.44000424 9.79961096 53.21995252 9.9011108 57 10 C57 10.33 57 10.66 57 11 C51.89542996 11.0248966 46.79089603 11.04295235 41.6862793 11.05493164 C39.95320011 11.05993075 38.22012507 11.06673224 36.48706055 11.07543945 C33.98224862 11.08770027 31.47749292 11.09327266 28.97265625 11.09765625 C27.82833885 11.10539818 27.82833885 11.10539818 26.66090393 11.11329651 C11.78370372 11.11481483 11.78370372 11.11481483 5.5 7.1875 C4.6646875 6.68605469 3.829375 6.18460938 2.96875 5.66796875 C0.77077605 3.80579637 0.34166041 2.81259733 0 0 Z " fill="#8DE8F5" transform="translate(326,177)"/>
<path d="M0 0 C0 1.32 0 2.64 0 4 C-1.65 4.33 -3.3 4.66 -5 5 C-5.33 5.99 -5.66 6.98 -6 8 C-9.44444444 11 -9.44444444 11 -12 11 C-12 12.32 -12 13.64 -12 15 C-13.32 15 -14.64 15 -16 15 C-17.03789581 16.64333504 -18.03567924 18.31243867 -19 20 C-21.1875 21.3125 -21.1875 21.3125 -23 22 C-21.56591009 17.27184903 -18.78367088 14.35564183 -15.3125 11 C-14.77447754 10.47180664 -14.23645508 9.94361328 -13.68212891 9.39941406 C-3.97017994 0 -3.97017994 0 0 0 Z " fill="#4DE2A0" transform="translate(176,144)"/>
<path d="M0 0 C1.09744199 3.44085194 0.99015017 6.35538681 0.6875 9.9375 C0.56955078 11.46697266 0.56955078 11.46697266 0.44921875 13.02734375 C0 16 0 16 -1.03125 18.30078125 C-2.45754837 22.27486259 -2.24975488 26.06253994 -2.1875 30.25 C-2.18685547 31.05824219 -2.18621094 31.86648437 -2.18554688 32.69921875 C-2.14596142 38.1971991 -1.68457926 43.54527249 -1 49 C-4.97599094 43.03601359 -4.18327505 36.24564224 -4.1875 29.3125 C-4.19974609 28.27416016 -4.21199219 27.23582031 -4.22460938 26.16601562 C-4.24184274 17.00360953 -2.65723248 8.73090672 0 0 Z " fill="#7CF4B4" transform="translate(143,183)"/>
<path d="M0 0 C0.99 0.33 1.98 0.66 3 1 C3.12375 1.969375 3.2475 2.93875 3.375 3.9375 C3.684375 5.4534375 3.684375 5.4534375 4 7 C4.66 7.33 5.32 7.66 6 8 C6 8.66 6 9.32 6 10 C6.66 10 7.32 10 8 10 C9 11 10 12 11 13 C11.66 13 12.32 13 13 13 C13.1546875 13.804375 13.1546875 13.804375 13.3125 14.625 C14.18092697 17.62502044 15.55620296 20.2379535 17 23 C9.12273856 19.49119757 4.42789413 12.77489659 0.8125 5.19921875 C0 3 0 3 0 0 Z " fill="#40E071" transform="translate(415,159)"/>
<path d="M0 0 C6.05588101 0.93970567 11.05596363 2.7807672 16.5 5.5 C17.12342285 5.80881104 17.7468457 6.11762207 18.38916016 6.43579102 C22.86873373 8.73746746 22.86873373 8.73746746 24 11 C22.906875 10.67 21.81375 10.34 20.6875 10 C17.15421116 8.86913351 17.15421116 8.86913351 14 9 C14 8.34 14 7.68 14 7 C11.36 6.67 8.72 6.34 6 6 C6 5.34 6 4.68 6 4 C3.03 3.505 3.03 3.505 0 3 C0 2.01 0 1.02 0 0 Z " fill="#53F457" transform="translate(474,134)"/>
<path d="M0 0 C6.32284382 -0.25291375 6.32284382 -0.25291375 9.59375 0.96875 C14.18751558 2.35952307 18.5999049 2.461516 23.375 2.625 C24.30183594 2.66367188 25.22867187 2.70234375 26.18359375 2.7421875 C28.45542296 2.83587118 30.72768328 2.91899809 33 3 C33 9.27 33 15.54 33 22 C32.67 22 32.34 22 32 22 C32 16.06 32 10.12 32 4 C29.79183594 4.05220703 29.79183594 4.05220703 27.5390625 4.10546875 C25.56771985 4.13363079 23.59636472 4.16092833 21.625 4.1875 C20.65949219 4.21263672 19.69398438 4.23777344 18.69921875 4.26367188 C11.96102416 4.33150605 6.3287719 3.31140022 0 1 C0 0.67 0 0.34 0 0 Z " fill="#C6FEF5" transform="translate(381,129)"/>
<path d="M0 0 C1.65 0 3.3 0 5 0 C5 0.66 5 1.32 5 2 C5.66 2 6.32 2 7 2 C7 2.66 7 3.32 7 4 C7.66 3.938125 8.32 3.87625 9 3.8125 C13.04329454 4.06520591 16.27438019 5.48795686 20 7 C21.49842056 7.56669398 22.99836802 8.1293713 24.5 8.6875 C25.655 9.120625 26.81 9.55375 28 10 C28 10.33 28 10.66 28 11 C20.67380505 10.7306546 15.29196826 9.75050657 9 6 C7.33454731 5.08112955 5.66787194 4.16447184 4 3.25 C2.66570468 2.50171276 1.33201375 1.7523411 0 1 C0 0.67 0 0.34 0 0 Z " fill="#69F2A2" transform="translate(176,277)"/>
<path d="M0 0 C2.24586931 3.36880397 2.21484231 4.62021333 2.3125 8.5625 C2.84057226 16.21491549 5.38746534 22.60722971 10.8125 28.125 C11.534375 28.74375 12.25625 29.3625 13 30 C11.35 30 9.7 30 8 30 C7.67 29.01 7.34 28.02 7 27 C6.34 27 5.68 27 5 27 C5 26.01 5 25.02 5 24 C4.34 24 3.68 24 3 24 C0.55301103 19.19554605 0.56379939 14.46208294 0.375 9.1875 C0.33632813 8.30384766 0.29765625 7.42019531 0.2578125 6.50976562 C0.16399216 4.34017028 0.08092674 2.17011453 0 0 Z " fill="#6CD4F2" transform="translate(312,318)"/>
<path d="M0 0 C0.66 0.33 1.32 0.66 2 1 C1.67 1.99 1.34 2.98 1 4 C0.34 4 -0.32 4 -1 4 C-1.33 5.32 -1.66 6.64 -2 8 C-2.99 8 -3.98 8 -5 8 C-5.061875 8.845625 -5.12375 9.69125 -5.1875 10.5625 C-6.19380739 14.81995436 -8.13483727 17.7282939 -11 21 C-11.33 21 -11.66 21 -12 21 C-12.37980084 16.09125326 -11.62567943 13.73615576 -8.6875 9.8125 C-8.07261719 8.97332031 -7.45773437 8.13414063 -6.82421875 7.26953125 C-5.29272773 5.3641859 -3.85236302 3.59292843 -2 2 C-1.34 2 -0.68 2 0 2 C0 1.34 0 0.68 0 0 Z " fill="#49F0F3" transform="translate(280,35)"/>
<path d="M0 0 C0.99 0 1.98 0 3 0 C3 4.95 3 9.9 3 15 C3.66 15 4.32 15 5 15 C7.22656164 19.74354436 8.46148032 23.72250715 9 29 C5.43354181 27.21677091 4.62806604 23.25067623 3.17578125 19.69921875 C1.13303744 13.27238024 0.56927149 6.69531241 0 0 Z " fill="#9FF0F9" transform="translate(255,188)"/>
<path d="M0 0 C-5.22049142 4.93046412 -11.29176249 8.42512096 -18 11 C-18.99 10.67 -19.98 10.34 -21 10 C-21 9.34 -21 8.68 -21 8 C-18.03 7.34 -15.06 6.68 -12 6 C-12 5.34 -12 4.68 -12 4 C-10.02 3.34 -8.04 2.68 -6 2 C-6 1.34 -6 0.68 -6 0 C-3.50907189 -1.24546405 -2.58919267 -0.7767578 0 0 Z " fill="#70E6A2" transform="translate(502,273)"/>
<path d="M0 0 C0.82422508 2.35717874 1.15185353 3.57799821 0.29296875 5.96484375 C-0.07183594 6.61582031 -0.43664062 7.26679688 -0.8125 7.9375 C-2.05462647 10.22250399 -3.10786306 12.29662343 -4 14.75 C-5.20210016 17.45472537 -6.81582529 19.03424276 -9 21 C-9 19.68 -9 18.36 -9 17 C-8.34 17 -7.68 17 -7 17 C-7 16.01 -7 15.02 -7 14 C-6.34 14 -5.68 14 -5 14 C-5.103125 12.80375 -5.20625 11.6075 -5.3125 10.375 C-5.34355513 6.88440321 -4.7614318 5.16275632 -2.5 2.5 C-1.675 1.675 -0.85 0.85 0 0 Z " fill="#51C6F5" transform="translate(410,351)"/>
<path d="M0 0 C6.6103224 5.46870683 7.05602203 18.90566013 8 27 C8.13599219 30.3427757 8.13310641 33.6575501 8 37 C7.67 37 7.34 37 7 37 C7 34.36 7 31.72 7 29 C6.34 29 5.68 29 5 29 C4.94392578 27.80117187 4.94392578 27.80117187 4.88671875 26.578125 C4.41719462 18.73431012 3.12205003 11.55403678 1 4 C0.6619592 2.66785237 0.32667738 1.33497969 0 0 Z " fill="#40EF47" transform="translate(524,175)"/>
<path d="M0 0 C2.4375 0.75 2.4375 0.75 5 2 C5.3721042 3.32303717 5.70630173 4.65737935 6 6 C7.9837767 7.28436734 7.9837767 7.28436734 10 8 C10 8.66 10 9.32 10 10 C10.99 10.33 11.98 10.66 13 11 C13.33 12.65 13.66 14.3 14 16 C7.91852886 12.65519087 3.90378521 7.68724038 0 2 C0 1.34 0 0.68 0 0 Z " fill="#76F6A8" transform="translate(152,254)"/>
<path d="M0 0 C-1 3 -1 3 -3.8125 4.75 C-7.71122541 7.50204146 -8.89236701 9.78473403 -11 14 C-11.33 14 -11.66 14 -12 14 C-11.67 11.03 -11.34 8.06 -11 5 C-9.68 4.67 -8.36 4.34 -7 4 C-6.67 3.01 -6.34 2.02 -6 1 C-3 0 -3 0 0 0 Z " fill="#5BECF7" transform="translate(327,71)"/>
<path d="M0 0 C18.01621403 1.42926124 18.01621403 1.42926124 22 6 C21.01 6.495 21.01 6.495 20 7 C19.278125 6.690625 18.55625 6.38125 17.8125 6.0625 C14.4131098 4.77828592 11.60443644 4.85864955 8 5 C8.33 4.01 8.66 3.02 9 2 C4.545 2.495 4.545 2.495 0 3 C0 2.01 0 1.02 0 0 Z " fill="#1DF0EF" transform="translate(344,15)"/>
<path d="M0 0 C5.33333333 2.66666667 10.66666667 5.33333333 16 8 C16 8.66 16 9.32 16 10 C11.74455827 10.33676158 9.37971481 9.44521674 5.75 7.25 C4.87859375 6.73953125 4.0071875 6.2290625 3.109375 5.703125 C0.78404278 3.82563454 0.32958488 2.91555856 0 0 Z " fill="#77E8F6" transform="translate(326,177)"/>
<path d="M0 0 C0.99 0.495 0.99 0.495 2 1 C2 1.66 2 2.32 2 3 C2.66 3 3.32 3 4 3 C4.28875 4.134375 4.5775 5.26875 4.875 6.4375 C5.24625 7.613125 5.6175 8.78875 6 10 C6.66 10.33 7.32 10.66 8 11 C9.05352843 13.30965848 10.05719096 15.6429774 11 18 C5.91606364 16.30535455 3.58434725 11.51762502 1 7 C0.23882272 4.50087459 0.05720144 2.63126602 0 0 Z " fill="#62E9F6" transform="translate(361,105)"/>
<path d="M0 0 C5.80661152 0.37420385 9.76344598 1.38172299 15 4 C17.98974821 4.52789284 20.97169931 4.80484284 24 5 C24 5.33 24 5.66 24 6 C15.84392927 6.50449922 9.26494456 5.9653283 2 2 C1.34 1.34 0.68 0.68 0 0 Z " fill="#60E586" transform="translate(432,182)"/>
<path d="M0 0 C2.81631641 2.49493496 4.40955981 5.26562818 6.1875 8.5625 C6.71730469 9.53316406 7.24710937 10.50382812 7.79296875 11.50390625 C9 14 9 14 9 16 C8.34 16 7.68 16 7 16 C6.34 15.34 5.68 14.68 5 14 C4.34 13.67 3.68 13.34 3 13 C3 11.35 3 9.7 3 8 C2.34 8 1.68 8 1 8 C0.67 5.36 0.34 2.72 0 0 Z " fill="#75F4F9" transform="translate(402,50)"/>
<path d="M0 0 C0 0.33 0 0.66 0 1 C-0.96421875 1.04898437 -1.9284375 1.09796875 -2.921875 1.1484375 C-4.18515625 1.22320312 -5.4484375 1.29796875 -6.75 1.375 C-8.62945312 1.47941406 -8.62945312 1.47941406 -10.546875 1.5859375 C-13.87470505 1.78791842 -13.87470505 1.78791842 -16.125 3.0625 C-18.68176901 4.3408845 -20.44607276 3.9939378 -23.25 3.625 C-24.14203125 3.51414062 -25.0340625 3.40328125 -25.953125 3.2890625 C-26.62859375 3.19367187 -27.3040625 3.09828125 -28 3 C-28 2.67 -28 2.34 -28 2 C-18.57667045 0.00111191 -9.57293998 -0.21867122 0 0 Z " fill="#2AEFEE" transform="translate(344,14)"/>
<path d="M0 0 C0.33 0 0.66 0 1 0 C1.34739006 4.86346089 0.72120171 7.91819743 -2 12 C-5.0625 13.9375 -5.0625 13.9375 -8 15 C-8.66 14.67 -9.32 14.34 -10 14 C-9.38125 13.7525 -8.7625 13.505 -8.125 13.25 C-5.6170261 11.77472123 -5.07707051 10.65125048 -4 8 C-3.67 7.34 -3.34 6.68 -3 6 C-2.34 6 -1.68 6 -1 6 C-0.67 4.02 -0.34 2.04 0 0 Z " fill="#4DC5EF" transform="translate(358,332)"/>
<path d="M0 0 C0.99 0.66 1.98 1.32 3 2 C2.34773437 2.10957031 1.69546875 2.21914062 1.0234375 2.33203125 C-4.1197623 3.26508962 -8.41899779 4.34784083 -13 7 C-13 6.01 -13 5.02 -13 4 C-8.68419881 0.31577948 -5.62804311 -0.63713696 0 0 Z " fill="#67E6B5" transform="translate(216,187)"/>
<path d="M0 0 C0.33 0.66 0.66 1.32 1 2 C1.66 2 2.32 2 3 2 C3.99 5.96 4.98 9.92 6 14 C5.01 14 4.02 14 3 14 C3 13.01 3 12.02 3 11 C2.01 10.67 1.02 10.34 0 10 C0 6.7 0 3.4 0 0 Z " fill="#61E3F4" transform="translate(312,152)"/>
<path d="M0 0 C0.99 0.495 0.99 0.495 2 1 C2.8515625 3.765625 2.8515625 3.765625 3.625 7.25 C3.88539063 8.38953125 4.14578125 9.5290625 4.4140625 10.703125 C4.92342234 13.56912304 5.11982739 16.10235596 5 19 C4.31225595 17.67741528 3.65288627 16.34013497 3 15 C2.46375 13.9275 1.9275 12.855 1.375 11.75 C-0.21496542 7.41373067 -0.24027781 4.56527834 0 0 Z " fill="#91F5F9" transform="translate(410,67)"/>
<path d="M0 0 C0.66 0.33 1.32 0.66 2 1 C0.35 1.66 -1.3 2.32 -3 3 C-3 3.66 -3 4.32 -3 5 C-5.90092502 6.93395001 -6.89674737 7.30131941 -10.1875 7.625 C-11.445625 7.74875 -12.70375 7.8725 -14 8 C-12.42648119 4.85296239 -9.69798338 4.2583253 -6.5625 2.8125 C-4.80099609 1.98685547 -4.80099609 1.98685547 -3.00390625 1.14453125 C-2.01261719 0.76683594 -1.02132812 0.38914063 0 0 Z " fill="#68E5BA" transform="translate(190,136)"/>
<path d="M0 0 C6.89835786 1.85913191 12.24385683 4.79515783 18 9 C15 9 15 9 12.1875 7.5625 C9.0309269 6.01516024 6.46750207 5.41279787 3 5 C3 4.01 3 3.02 3 2 C2.01 1.67 1.02 1.34 0 1 C0 0.67 0 0.34 0 0 Z " fill="#8FFAFD" transform="translate(363,18)"/>
<path d="M0 0 C0.66 0.33 1.32 0.66 2 1 C0.65289578 5.04131267 -1.38428334 5.90288434 -5 8 C-5.99 8 -6.98 8 -8 8 C-8 7.01 -8 6.02 -8 5 C-7.01 4.67 -6.02 4.34 -5 4 C-4.67 3.34 -4.34 2.68 -4 2 C-2.0625 0.8125 -2.0625 0.8125 0 0 Z " fill="#47BCEE" transform="translate(380,390)"/>
<path d="M0 0 C-2.41556126 3.19199167 -4.68003538 5.74716687 -8 8 C-8.66 7.67 -9.32 7.34 -10 7 C-9.67 6.01 -9.34 5.02 -9 4 C-8.34 4 -7.68 4 -7 4 C-6.87625 3.360625 -6.7525 2.72125 -6.625 2.0625 C-6.41875 1.381875 -6.2125 0.70125 -6 0 C-3.50907189 -1.24546405 -2.58919267 -0.7767578 0 0 Z " fill="#58E481" transform="translate(512,264)"/>
<path d="M0 0 C0.99 0.33 1.98 0.66 3 1 C0.69 3.64 -1.62 6.28 -4 9 C-4.66 8.67 -5.32 8.34 -6 8 C-5.67 7.01 -5.34 6.02 -5 5 C-4.34 5 -3.68 5 -3 5 C-2.87625 4.360625 -2.7525 3.72125 -2.625 3.0625 C-2.41875 2.381875 -2.2125 1.70125 -2 1 C-1.34 0.67 -0.68 0.34 0 0 Z M-9 9 C-8.01 9.33 -7.02 9.66 -6 10 C-6.99 11.485 -6.99 11.485 -8 13 C-8.66 12.67 -9.32 12.34 -10 12 C-9.67 11.01 -9.34 10.02 -9 9 Z " fill="#0DF1F9" transform="translate(284,34)"/>
<path d="M0 0 C1.485 0.99 1.485 0.99 3 2 C3 3.32 3 4.64 3 6 C3.66 6 4.32 6 5 6 C5.33 8.97 5.66 11.94 6 15 C2.35219334 10.8310781 0 5.55196264 0 0 Z " fill="#64CCF1" transform="translate(260,350)"/>
<path d="M0 0 C1.90608098 3.21182149 2.22266247 5.53882603 2.125 9.25 C2.10695313 10.14203125 2.08890625 11.0340625 2.0703125 11.953125 C2.03550781 12.96632812 2.03550781 12.96632812 2 14 C1.34 14 0.68 14 0 14 C-0.33 15.65 -0.66 17.3 -1 19 C-1.66 19 -2.32 19 -3 19 C-2.7834375 18.38253906 -2.566875 17.76507813 -2.34375 17.12890625 C-0.38255242 11.16359693 0.30344498 6.27119633 0 0 Z " fill="#83EF9F" transform="translate(475,204)"/>
<path d="M0 0 C0.99 0.33 1.98 0.66 3 1 C3.103125 1.928125 3.20625 2.85625 3.3125 3.8125 C4.04990583 7.23138159 4.61385993 7.71328243 7 10 C7.6875 12.6875 7.6875 12.6875 8 15 C3.79205414 11.24696721 1.83657832 8.21974892 0 3 C0 2.01 0 1.02 0 0 Z " fill="#73E797" transform="translate(415,159)"/>
<path d="M0 0 C0.99 0 1.98 0 3 0 C3 2.31 3 4.62 3 7 C3.66 7 4.32 7 5 7 C5.33 7.99 5.66 8.98 6 10 C5.01 11.485 5.01 11.485 4 13 C3.32404685 11.58774074 2.65959941 10.16997095 2 8.75 C1.62875 7.96109375 1.2575 7.1721875 0.875 6.359375 C0 4 0 4 0 0 Z " fill="#65F39F" transform="translate(142,232)"/>
<path d="M0 0 C2.95294288 0.64367519 5.48281988 1.59277161 8.1875 2.9375 C8.88230469 3.27652344 9.57710938 3.61554688 10.29296875 3.96484375 C12 5 12 5 13 7 C11.906875 6.67 10.81375 6.34 9.6875 6 C6.15421116 4.86913351 6.15421116 4.86913351 3 5 C3 4.34 3 3.68 3 3 C2.01 3 1.02 3 0 3 C0 2.01 0 1.02 0 0 Z " fill="#72F775" transform="translate(485,138)"/>
<path d="M0 0 C2.89932357 2.39509338 3.50168276 4.31245243 4 8 C4.66 8 5.32 8 6 8 C6.33 9.65 6.66 11.3 7 13 C3.74085049 9.91702073 0.93446327 7.0838669 -1 3 C-0.67 2.01 -0.34 1.02 0 0 Z " fill="#5BCAF0" transform="translate(267,364)"/>
<path d="M0 0 C1.5 1.375 1.5 1.375 3 3 C3 3.66 3 4.32 3 5 C3.99 5.33 4.98 5.66 6 6 C6 6.66 6 7.32 6 8 C6.66 8.33 7.32 8.66 8 9 C4.84526281 8.64947365 3.1766466 8.13480924 0.625 6.1875 C-1 4 -1 4 -0.75 1.75 C-0.5025 1.1725 -0.255 0.595 0 0 Z " fill="#34F176" transform="translate(150,247)"/>
<path d="M0 0 C0.90105469 0.01804687 1.80210937 0.03609375 2.73046875 0.0546875 C3.41753906 0.07789063 4.10460937 0.10109375 4.8125 0.125 C0.49880028 3.00079981 -2.99484761 4.125 -8.1875 4.125 C-8.1875 3.465 -8.1875 2.805 -8.1875 2.125 C-4.87379 -0.08414 -3.8428979 -0.09981553 0 0 Z " fill="#5CDB99" transform="translate(476.1875,283.875)"/>
<path d="M0 0 C0 0.33 0 0.66 0 1 C-1.65 1 -3.3 1 -5 1 C-5 1.66 -5 2.32 -5 3 C-11.435 3.495 -11.435 3.495 -18 4 C-13.39829283 -0.60170717 -6.11199681 -0.2182856 0 0 Z " fill="#83E9CB" transform="translate(211,132)"/>
<path d="M0 0 C3.1875 -0.3125 3.1875 -0.3125 7 0 C9.9375 2.5 9.9375 2.5 12 5 C8.76344816 5 7.21247361 4.3449153 4.3125 3 C3.50425781 2.62875 2.69601562 2.2575 1.86328125 1.875 C1.24839844 1.58625 0.63351562 1.2975 0 1 C0 0.67 0 0.34 0 0 Z " fill="#81EF9A" transform="translate(457,188)"/>
<path d="M0 0 C3.63559661 3.43361902 6.36113346 6.7973607 9 11 C8.67 11.66 8.34 12.32 8 13 C7.67 12.01 7.34 11.02 7 10 C6.01 10 5.02 10 4 10 C1.125 3.375 1.125 3.375 0 0 Z " fill="#85F882" transform="translate(515,161)"/>
<path d="M0 0 C9.28125 4.46875 9.28125 4.46875 11 9 C6.69932292 8.09985829 4.6115108 6.90171303 2.125 3.375 C1.42375 2.26125 0.7225 1.1475 0 0 Z " fill="#82F782" transform="translate(498,145)"/>
<path d="M0 0 C0.33 0.99 0.66 1.98 1 3 C2.65 3.33 4.3 3.66 6 4 C6 4.66 6 5.32 6 6 C3.23723823 5.47731534 0.6739124 4.89130413 -2 4 C-2 3.34 -2 2.68 -2 2 C-3.32 1.67 -4.64 1.34 -6 1 C-4.02 0.67 -2.04 0.34 0 0 Z " fill="#57D5EB" transform="translate(331,232)"/>
<path d="M0 0 C2.31483907 2.31483907 2.7608956 3.89022523 3.6875 7 C3.95949219 7.886875 4.23148437 8.77375 4.51171875 9.6875 C5 12 5 12 4 14 C1.28608722 9.22642128 -0.56561146 5.65611463 0 0 Z " fill="#5EDCF4" transform="translate(259,203)"/>
<path d="M0 0 C3.63 0 7.26 0 11 0 C10.67 0.66 10.34 1.32 10 2 C7.49609375 2.4140625 7.49609375 2.4140625 4.4375 2.625 C3.42558594 2.69976562 2.41367188 2.77453125 1.37109375 2.8515625 C0.58863281 2.90054688 -0.19382813 2.94953125 -1 3 C-0.67 2.01 -0.34 1.02 0 0 Z " fill="#0DCD90" transform="translate(206,133)"/>
<path d="M0 0 C0.66 0.33 1.32 0.66 2 1 C1.67 1.99 1.34 2.98 1 4 C0.34 4 -0.32 4 -1 4 C-1.061875 4.61875 -1.12375 5.2375 -1.1875 5.875 C-2 8 -2 8 -4.5625 9.25 C-5.366875 9.4975 -6.17125 9.745 -7 10 C-5.82744291 6.66272214 -4.81131596 4.22562513 -2 2 C-1.34 2 -0.68 2 0 2 C0 1.34 0 0.68 0 0 Z " fill="#77F6FB" transform="translate(280,35)"/>
<path d="M0 0 C8.19256018 0.19256018 8.19256018 0.19256018 11.5625 3.5625 C12.036875 4.366875 12.51125 5.17125 13 6 C8.14036821 5.39254603 4.2594482 3.27241033 0 1 C0 0.67 0 0.34 0 0 Z " fill="#7CD6F8" transform="translate(299,398)"/>
<path d="M0 0 C0.99 0.33 1.98 0.66 3 1 C3 1.66 3 2.32 3 3 C3.99 3.33 4.98 3.66 6 4 C6.33 5.65 6.66 7.3 7 9 C1.21538462 5.67692308 1.21538462 5.67692308 0.125 2.25 C0.08375 1.5075 0.0425 0.765 0 0 Z " fill="#56F28F" transform="translate(159,261)"/>
<path d="M0 0 C0.66 0 1.32 0 2 0 C2.66 0.99 3.32 1.98 4 3 C6.05925139 3.72382467 6.05925139 3.72382467 8 4 C8.33 5.65 8.66 7.3 9 9 C4.71930097 7.41455592 2.70478088 4.5312417 0 1 C0 0.67 0 0.34 0 0 Z " fill="#74E5F8" transform="translate(264,217)"/>
<path d="M0 0 C4.43090471 1.20842856 6.98112756 2.51668565 10 6 C9.01 6.495 9.01 6.495 8 7 C2.25 3.375 2.25 3.375 0 0 Z " fill="#7CF5A8" transform="translate(166,270)"/>
<path d="M0 0 C2.33524782 2.25740623 4.18705073 4.2805761 6 7 C6 7.99 6 8.98 6 10 C5.01 10 4.02 10 3 10 C2.49596232 8.70990357 1.99690074 7.41786211 1.5 6.125 C1.2215625 5.40570313 0.943125 4.68640625 0.65625 3.9453125 C0 2 0 2 0 0 Z " fill="#6DE2F4" transform="translate(406,202)"/>
<path d="M0 0 C0.66 0 1.32 0 2 0 C2.67667998 1.24460783 3.34094719 2.49596896 4 3.75 C4.556875 4.79414063 4.556875 4.79414063 5.125 5.859375 C6 8 6 8 6 12 C5.34 11.67 4.68 11.34 4 11 C3.375 7.9375 3.375 7.9375 3 5 C2.34 5 1.68 5 1 5 C0.67 3.35 0.34 1.7 0 0 Z " fill="#16EF1C" transform="translate(520,171)"/>
<path d="M0 0 C0.75 1.625 0.75 1.625 1 4 C-0.8125 7.25 -0.8125 7.25 -3 10 C-3.66 10 -4.32 10 -5 10 C-3.66511872 6.40608886 -2.03977277 3.24509304 0 0 Z " fill="#6EEAB3" transform="translate(152,166)"/>
<path d="M0 0 C3.45462112 0.25589786 4.27381547 1.28626163 6.75 3.875 C9 7 9 7 9 10 C6.7960517 8.89802585 5.59514781 7.87256482 4 6 C3.835 5.29875 3.67 4.5975 3.5 3.875 C3.335 3.25625 3.17 2.6375 3 2 C2.01 1.67 1.02 1.34 0 1 C0 0.67 0 0.34 0 0 Z " fill="#14F312" transform="translate(509,158)"/>
<path d="M0 0 C5.00028314 1.34153938 9.19067503 3.48370003 13 7 C13 7.66 13 8.32 13 9 C12.01 8.67 11.02 8.34 10 8 C10 7.34 10 6.68 10 6 C9.278125 5.731875 8.55625 5.46375 7.8125 5.1875 C5.01528026 4.00645167 2.53580025 2.66638302 0 1 C0 0.67 0 0.34 0 0 Z " fill="#23EDF0" transform="translate(370,23)"/>
<path d="M0 0 C0.99 0 1.98 0 3 0 C2.50639991 4.27786748 1.95216435 7.09567131 0 11 C0 7.37 0 3.74 0 0 Z " fill="#61CDEF" transform="translate(411,340)"/>
<path d="M0 0 C1.9375 0.375 1.9375 0.375 4 1 C5.4783226 3.95664519 5.06032783 6.74229737 5 10 C2.82145293 6.7321794 1.50239966 3.61941735 0 0 Z " fill="#63DBF6" transform="translate(352,252)"/>
<path d="M0 0 C-2.06756277 2.7972908 -3.14440371 3.02692273 -6.6875 3.6875 C-7.780625 3.790625 -8.87375 3.89375 -10 4 C-8.68 3.34 -7.36 2.68 -6 2 C-6 1.34 -6 0.68 -6 0 C-3.50907189 -1.24546405 -2.58919267 -0.7767578 0 0 Z " fill="#47DE7C" transform="translate(502,273)"/>
<path d="M0 0 C1 3 1 3 0.22265625 5.04296875 C-0.16019531 5.75066406 -0.54304687 6.45835937 -0.9375 7.1875 C-1.31777344 7.90292969 -1.69804688 8.61835938 -2.08984375 9.35546875 C-2.54037109 10.16951172 -2.54037109 10.16951172 -3 11 C-3.33 11 -3.66 11 -4 11 C-4 9.02 -4 7.04 -4 5 C-3.34 5 -2.68 5 -2 5 C-2 4.01 -2 3.02 -2 2 C-1.34 2 -0.68 2 0 2 C0 1.34 0 0.68 0 0 Z " fill="#7DF28E" transform="translate(527,237)"/>
<path d="M0 0 C0.33 0.66 0.66 1.32 1 2 C-0.73397418 5.65047197 -2.19333016 7.55609075 -6 9 C-4.68775452 5.06326356 -3.08089673 2.77280706 0 0 Z " fill="#7FEDBF" transform="translate(159,157)"/>
<path d="M0 0 C4.82360189 -0.19294408 8.49646738 0.24252386 13 2 C13 2.33 13 2.66 13 3 C8.17639811 3.19294408 4.50353262 2.75747614 0 1 C0 0.67 0 0.34 0 0 Z " fill="#73E9F5" transform="translate(381,129)"/>
<path d="M0 0 C2.62374802 5.24749603 3.09534716 8.08847633 3 14 C2.67 14 2.34 14 2 14 C0.02905192 9.07262981 -0.1799928 5.21979128 0 0 Z " fill="#2AE3F5" transform="translate(411,76)"/>
<path d="M0 0 C-0.99 0.33 -1.98 0.66 -3 1 C-3 1.66 -3 2.32 -3 3 C-5.31 3.33 -7.62 3.66 -10 4 C-7.39928297 0.98864344 -3.94054294 -1.97027147 0 0 Z " fill="#76F6F7" transform="translate(307,20)"/>
<path d="M0 0 C2.31 0 4.62 0 7 0 C7 0.66 7 1.32 7 2 C7.99 2.33 8.98 2.66 10 3 C3.47692308 3.36923077 3.47692308 3.36923077 1.0625 1.5 C0.5365625 0.7575 0.5365625 0.7575 0 0 Z " fill="#5DD8F2" transform="translate(278,229)"/>
<path d="M0 0 C2.31 1.98 4.62 3.96 7 6 C5.68 6.33 4.36 6.66 3 7 C1.25 5.8125 1.25 5.8125 0 4 C0 2.68 0 1.36 0 0 Z " fill="#67EDAD" transform="translate(199,222)"/>
<path d="M0 0 C0 1.32 0 2.64 0 4 C-2.31 4.33 -4.62 4.66 -7 5 C-2.25 0 -2.25 0 0 0 Z " fill="#5FE3B2" transform="translate(176,144)"/>
<path d="M0 0 C0.66 0 1.32 0 2 0 C2.33 0.66 2.66 1.32 3 2 C3.99 2.33 4.98 2.66 6 3 C7.1875 5.5625 7.1875 5.5625 8 8 C4.22699642 6.9802693 3.19793856 6.34127338 1.1875 2.875 C0.795625 1.92625 0.40375 0.9775 0 0 Z " fill="#66EEFC" transform="translate(351,76)"/>
<path d="M0 0 C0.99 0 1.98 0 3 0 C2.67 2.64 2.34 5.28 2 8 C1.67 7.34 1.34 6.68 1 6 C0.34 5.67 -0.32 5.34 -1 5 C-0.67 3.35 -0.34 1.7 0 0 Z " fill="#51EBF8" transform="translate(258,74)"/>
<path d="M0 0 C0.66 0 1.32 0 2 0 C2 1.32 2 2.64 2 4 C2.99 4 3.98 4 5 4 C5.33 5.32 5.66 6.64 6 8 C5.01 8 4.02 8 3 8 C0 2.25 0 2.25 0 0 Z " fill="#40E79B" transform="translate(193,214)"/>
<path d="M0 0 C2.91517292 1.07401108 4.77810176 1.77810176 7 4 C6.34 4 5.68 4 5 4 C4.67 4.66 4.34 5.32 4 6 C2.62437146 4.71034824 1.29233607 3.37310707 0 2 C0 1.34 0 0.68 0 0 Z " fill="#444444" transform="translate(663,198)"/>
<path d="M0 0 C2.475 0.495 2.475 0.495 5 1 C5 1.66 5 2.32 5 3 C5.66 3 6.32 3 7 3 C6.67 4.32 6.34 5.64 6 7 C1.125 2.25 1.125 2.25 0 0 Z " fill="#76E1F3" transform="translate(343,242)"/>
<path d="M0 0 C0.99 0.33 1.98 0.66 3 1 C1.02 3.97 1.02 3.97 -1 7 C-3 4 -3 4 -3 2 C-2.01 2 -1.02 2 0 2 C0 1.34 0 0.68 0 0 Z " fill="#5CE8A9" transform="translate(199,195)"/>
<path d="M0 0 C2.475 0.99 2.475 0.99 5 2 C5.33 4.64 5.66 7.28 6 10 C3.58194961 7.58194961 2.47143888 5.07082897 1 2 C0.67 1.34 0.34 0.68 0 0 Z " fill="#70EB8D" transform="translate(469,194)"/>
<path d="M0 0 C6.75 -0.125 6.75 -0.125 9 1 C9 1.66 9 2.32 9 3 C5.85375007 3.26218749 4.38162983 3.24754367 1.6875 1.5 C1.130625 1.005 0.57375 0.51 0 0 Z " fill="#4FDDF3" transform="translate(333,184)"/>
<path d="M0 0 C2.64 0.33 5.28 0.66 8 1 C8 1.99 8 2.98 8 4 C5.69 3.67 3.38 3.34 1 3 C0.67 2.01 0.34 1.02 0 0 Z " fill="#25AFEA" transform="translate(296,395)"/>
<path d="M0 0 C0.33 0.99 0.66 1.98 1 3 C-0.65 4.65 -2.3 6.3 -4 8 C-4 6.68 -4 5.36 -4 4 C-3.34 4 -2.68 4 -2 4 C-2 3.01 -2 2.02 -2 1 C-1.34 0.67 -0.68 0.34 0 0 Z " fill="#7BD6F1" transform="translate(405,364)"/>
<path d="M0 0 C-0.66 0 -1.32 0 -2 0 C-2 0.66 -2 1.32 -2 2 C-4.97 2 -7.94 2 -11 2 C-11 1.67 -11 1.34 -11 1 C-3.57142857 -1.42857143 -3.57142857 -1.42857143 0 0 Z " fill="#1AC66F" transform="translate(470,286)"/>
<path d="M0 0 C0.33 0.99 0.66 1.98 1 3 C0.01 4.485 0.01 4.485 -1 6 C-2.32 5.67 -3.64 5.34 -5 5 C-3.35 3.35 -1.7 1.7 0 0 Z " fill="#6AE597" transform="translate(471,223)"/>
<path d="M0 0 C1.98 1.65 3.96 3.3 6 5 C5.67 5.66 5.34 6.32 5 7 C4.34 6.34 3.68 5.68 3 5 C0.93125966 4.3574765 0.93125966 4.3574765 -1 4 C-0.67 2.68 -0.34 1.36 0 0 Z " fill="#72F96D" transform="translate(509,154)"/>
<path d="M0 0 C4.35535069 1.16142685 6.64619703 2.07699505 9 6 C5.9168649 4.80100302 2.93720508 3.52299523 0 2 C0 1.34 0 0.68 0 0 Z " fill="#19EC1A" transform="translate(492,143)"/>
<path d="M0 0 C0.33 0.66 0.66 1.32 1 2 C1.99 2 2.98 2 4 2 C4.66 3.65 5.32 5.3 6 7 C5.34 7 4.68 7 4 7 C3.34 6.34 2.68 5.68 2 5 C1.34 4.67 0.68 4.34 0 4 C0 2.68 0 1.36 0 0 Z " fill="#69F3FE" transform="translate(405,59)"/>
</svg>
